<?xml version="1.0" standalone="no"?>
<!DOCTYPE svg PUBLIC "-//W3C//DTD SVG 1.1//EN" "http://www.w3.org/Graphics/SVG/1.1/DTD/svg11.dtd" >
<svg xmlns="http://www.w3.org/2000/svg" xmlns:xlink="http://www.w3.org/1999/xlink" version="1.1">
<metadata>
Created by FontForge 20201107 at Tue Sep 29 18:46:34 2020
 By 
Copyright (c) 2020 by Charles Forman. All rights reserved.
</metadata>
<defs>
<font id="THICCCBOI-Bold" horiz-adv-x="600" >
  <font-face 
    font-family="THICCCBOI"
    font-weight="700"
    font-stretch="normal"
    units-per-em="1000"
    panose-1="0 0 8 0 0 0 0 0 0 0"
    ascent="800"
    descent="-200"
    x-height="500"
    cap-height="700"
    bbox="-671 -360 1558 1005"
    underline-thickness="50"
    underline-position="-100"
    unicode-range="U+0020-FB02"
  />
<missing-glyph horiz-adv-x="485" 
d="M418 -90h-351v842h351v-842zM386 -60v782h-288v-782h288z" />
    <glyph glyph-name="fi" unicode="fi" horiz-adv-x="627" 
d="M337 595q-26 3 -46 3q-35 0 -51 -13t-16 -48v-37h112v-111h-112v-389h-123v389h-83v111h83v45q0 95 39 131.5t118 36.5q31 0 79 -5v-113zM423 0v500h123v-500h-123zM438.5 635q-19.5 19 -19.5 47t19.5 47.5t46.5 19.5t46.5 -19.5t19.5 -47.5t-19.5 -47t-46.5 -19
t-46.5 19z" />
    <glyph glyph-name="fl" unicode="fl" horiz-adv-x="652" 
d="M337 595q-26 3 -46 3q-35 0 -51 -13t-16 -48v-37h112v-111h-112v-389h-123v389h-83v111h83v45q0 95 39 131.5t118 36.5q31 0 79 -5v-113zM541.5 118q7.5 -7 24.5 -7q12 0 32 3v-114q-37 -6 -69 -6q-58 0 -88.5 30.5t-30.5 108.5v567h124v-559q0 -16 7.5 -23z" />
    <glyph glyph-name=".notdef" horiz-adv-x="485" 
d="M418 -90h-351v842h351v-842zM386 -60v782h-288v-782h288z" />
    <glyph glyph-name=".null" horiz-adv-x="0" 
 />
    <glyph glyph-name="nonmarkingreturn" horiz-adv-x="333" 
 />
    <glyph glyph-name="space" unicode=" " horiz-adv-x="257" 
 />
    <glyph glyph-name="exclam" unicode="!" horiz-adv-x="262" 
d="M187 215h-109l-21 485h150zM79.5 114q18.5 19 52.5 19t52 -18.5t18 -53.5t-18 -53.5t-52 -18.5t-52.5 19t-18.5 53t18.5 53z" />
    <glyph glyph-name="quotedbl" unicode="&#x22;" horiz-adv-x="396" 
d="M96 379l-32 186v109h111v-109l-32 -186h-47zM221 565v109h112v-109l-33 -186h-47z" />
    <glyph glyph-name="numbersign" unicode="#" horiz-adv-x="616" 
d="M336 0h-92l58 170h-97l-56 -170h-92l57 170h-97l26 79h98l55 168h-98l24 78h101l57 172h92l-57 -172h95l57 172h92l-58 -172h98l-23 -78h-101l-56 -168h102l-25 -79h-104zM327 249l56 168h-95l-55 -168h94z" />
    <glyph glyph-name="dollar" unicode="$" horiz-adv-x="613" 
d="M267 768h92v-94q122 -14 203 -90l-77 -98q-56 54 -132 66v-148q69 -17 116.5 -38.5t78 -61.5t30.5 -103q0 -90 -58.5 -145t-160.5 -65v-91h-92v90q-147 11 -236 104l76 102q69 -74 171 -87v166q-69 16 -116 36.5t-78 60t-31 104.5q0 51 26 94t74.5 71t113.5 34v93z
M214.5 448q20.5 -15 63.5 -27v138q-39 -2 -61.5 -21.5t-22.5 -48.5q0 -26 20.5 -41zM353 109q39 5 61.5 24.5t22.5 51.5q0 30 -20 45t-64 29v-150z" />
    <glyph glyph-name="percent" unicode="%" horiz-adv-x="756" 
d="M106.5 366.5q-38.5 21.5 -59.5 59.5t-21 84q0 47 21 85t59.5 60t88.5 22t88.5 -22t60 -60t21.5 -85q0 -46 -21 -84t-60 -59.5t-89 -21.5t-88.5 21.5zM204 0h-74l426 667h75zM253 445.5q23 24.5 23 64.5q0 42 -23 66.5t-58 24.5t-57.5 -24.5t-22.5 -66.5q0 -40 22.5 -64.5
t57.5 -24.5t58 24.5zM472.5 9.5q-38.5 21.5 -59.5 59.5t-21 84q0 47 21 85t59.5 60t88.5 22t88 -22t59.5 -60t21.5 -85q0 -46 -21 -84t-59.5 -59.5t-88.5 -21.5t-88.5 21.5zM619 88.5q23 24.5 23 64.5q0 42 -23 66.5t-58 24.5q-36 0 -58.5 -24.5t-22.5 -66.5
q0 -40 22.5 -64.5t58.5 -24.5q35 0 58 24.5z" />
    <glyph glyph-name="ampersand" unicode="&#x26;" horiz-adv-x="650" 
d="M123 461.5q16 -32.5 55 -79.5q-73 -41 -112.5 -88t-39.5 -111q0 -91 65.5 -139.5t168.5 -48.5q44 0 103.5 19t110.5 60l68 -74h155l-151 155q20 40 29 77.5t9 86.5h-118q0 -45 -13 -71l-100 112q61 44 88 81t27 89q0 72 -46.5 110.5t-127.5 38.5q-83 0 -135 -39t-52 -109
q0 -37 16 -69.5zM351 530q0 -31 -18.5 -51t-56.5 -45q-23 26 -37 47.5t-14 46.5q0 29 16.5 41.5t52.5 12.5q57 0 57 -52zM390 158q-59 -60 -130 -60q-51 0 -81 22.5t-30 62.5q0 37 22.5 63t82.5 61z" />
    <glyph glyph-name="quotesingle" unicode="'" horiz-adv-x="186" 
d="M54 591v109h112v-109l-32 -186h-47z" />
    <glyph glyph-name="parenleft" unicode="(" horiz-adv-x="294" 
d="M199 -94q-73 83 -115.5 202.5t-42.5 239.5q0 121 42.5 240t115.5 202l77 -58q-54 -100 -77.5 -188t-23.5 -196t23.5 -196.5t77.5 -185.5z" />
    <glyph glyph-name="parenright" unicode=")" horiz-adv-x="294" 
d="M96 790q73 -83 115 -202.5t42 -239.5t-42.5 -239.5t-114.5 -202.5l-78 60q54 97 78 185.5t24 196.5t-23.5 196.5t-78.5 187.5z" />
    <glyph glyph-name="asterisk" unicode="*" horiz-adv-x="351" 
d="M26 472l97 50l-97 51l31 53l92 -59l-5 110h62l-5 -110l92 59l32 -53l-98 -51l98 -50l-32 -53l-92 59l5 -110h-62l5 110l-92 -59z" />
    <glyph glyph-name="plus" unicode="+" horiz-adv-x="504" 
d="M475 299h-181v-204h-84v204h-181v77h181v196h84v-196h181v-77z" />
    <glyph glyph-name="comma" unicode="," horiz-adv-x="231" 
d="M83 -10q-29 8 -36.5 20t-7.5 45q0 32 17 49.5t49 17.5t50 -18t18 -51q-1 -36 -9 -58t-31 -53l-47 -62l-37 31z" />
    <glyph glyph-name="hyphen" unicode="-" horiz-adv-x="360" 
d="M284 190h-240v105h240v-105z" />
    <glyph glyph-name="period" unicode="." horiz-adv-x="228" 
d="M78.5 105.5q17.5 17.5 49.5 17.5t49 -17.5t17 -49.5t-17 -50t-49 -18t-49.5 18t-17.5 50t17.5 49.5z" />
    <glyph glyph-name="slash" unicode="/" horiz-adv-x="364" 
d="M237 687h127l-237 -707h-127z" />
    <glyph glyph-name="zero" unicode="0" horiz-adv-x="631" 
d="M149.5 32.5q-64.5 45.5 -99 127.5t-34.5 190t34.5 190t99 127.5t151.5 45.5t151 -45.5t98.5 -127.5t34.5 -190t-34.5 -190t-98.5 -127.5t-151 -45.5t-151.5 45.5zM413.5 175.5q41.5 57.5 41.5 174.5t-41.5 174.5t-112.5 57.5t-112.5 -57.5t-41.5 -174.5t41.5 -174.5
t112.5 -57.5t112.5 57.5z" />
    <glyph glyph-name="one" unicode="1" horiz-adv-x="631" 
d="M373 700v-576h190v-124h-525v124h204v436l-109 -66l-68 102l177 103v1h131z" />
    <glyph glyph-name="two" unicode="2" horiz-adv-x="631" 
d="M564 124v-123h-521v30q7 99 58 192t156 135q22 10 33 14q50 21 77.5 35.5t46 35t18.5 48.5q0 33 -18.5 57t-46.5 36t-56 12q-61 0 -104 -25t-52 -75l-123 13q9 64 49 110t100.5 70t129.5 24q62 0 119 -26t92 -75t35 -115t-31.5 -110t-82.5 -72.5t-137 -61.5
q-75 -29 -110 -129h368z" />
    <glyph glyph-name="three" unicode="3" horiz-adv-x="631" 
d="M534 300.5q23 -42.5 23 -92.5q0 -62 -34.5 -112t-94 -78.5t-132.5 -28.5q-68 0 -125.5 26t-92.5 71.5t-38 102.5l135 10q9 -40 43 -64.5t78 -24.5q57 0 94 29.5t37 74.5t-37 74t-94 29h-37l1 105h36q50 0 82.5 24.5t32.5 62.5t-33 63.5t-84 25.5q-36 0 -67 -17t-44 -46
l-129 8q7 48 40.5 87t85.5 61t114 22q70 0 125.5 -26.5t87 -73t31.5 -104.5q0 -41 -18 -76t-51 -61q42 -29 65 -71.5z" />
    <glyph glyph-name="four" unicode="4" horiz-adv-x="631" 
d="M497 260h75v-124h-75v-136h-130v136h-343v124l219 440h145l-218 -440h197v156h130v-156z" />
    <glyph glyph-name="five" unicode="5" horiz-adv-x="631" 
d="M305 434q119 0 186 -54.5t67 -152.5q0 -113 -66.5 -175.5t-186.5 -62.5q-119 0 -188.5 51.5t-75.5 143.5l123 15q10 -44 46.5 -66.5t94.5 -22.5q62 0 96.5 30.5t34.5 86.5q0 46 -34.5 71.5t-96.5 25.5h-138v2l-95 -2l47 376h414v-124h-305l-18 -142h95z" />
    <glyph glyph-name="six" unicode="6" horiz-adv-x="631" 
d="M434 453q60 -32 94.5 -89t34.5 -128t-34.5 -128t-94.5 -89t-136 -32q-75 0 -135.5 32t-94.5 89t-34 128q0 69 33 126h-1l212 338h151l-135 -215h4q76 0 136 -32zM391.5 149.5q37.5 35.5 37.5 86.5t-38 86.5t-93 35.5q-54 0 -92 -35t-38 -87t38 -87t92 -35q56 0 93.5 35.5
z" />
    <glyph glyph-name="seven" unicode="7" horiz-adv-x="631" 
d="M44 576v124h514v-94l-271 -606h-142l256 576h-357z" />
    <glyph glyph-name="eight" unicode="8" horiz-adv-x="631" 
d="M561 204q0 -101 -69.5 -159t-190.5 -58q-122 0 -191.5 58t-69.5 159q0 111 89 161q-73 45 -73 142q0 96 65.5 151t179.5 55q113 0 178.5 -55t65.5 -151q0 -97 -73 -142q89 -50 89 -161zM214.5 572.5q-31.5 -24.5 -31.5 -65.5t31.5 -64.5t86.5 -23.5t86 23.5t31 64.5
t-31.5 65.5t-85.5 24.5q-55 0 -86.5 -24.5zM400.5 134.5q37.5 28.5 37.5 77.5q0 48 -37.5 74.5t-99.5 26.5q-63 0 -100.5 -26.5t-37.5 -74.5q0 -49 38 -77.5t100 -28.5t99.5 28.5z" />
    <glyph glyph-name="nine" unicode="9" horiz-adv-x="631" 
d="M521 327l-205 -327h-150l135 215h-4q-76 0 -136.5 32.5t-94.5 89t-34 127.5q0 72 34 128.5t94.5 88.5t136.5 32t136 -32t94 -88.5t34 -128.5q0 -79 -40 -137zM204 377.5q38 -35.5 93 -35.5q54 0 92 35t38 87t-38.5 87t-91.5 35q-56 0 -93.5 -35.5t-37.5 -86.5t38 -86.5z
" />
    <glyph glyph-name="colon" unicode=":" horiz-adv-x="240" 
d="M59.5 470.5q18.5 18.5 52.5 18.5t52 -18.5t18 -52.5q0 -35 -18 -53.5t-52 -18.5t-52.5 19t-18.5 53t18.5 52.5zM59.5 114q18.5 19 52.5 19t52 -18.5t18 -53.5t-18 -53.5t-52 -18.5t-52.5 19t-18.5 53t18.5 53z" />
    <glyph glyph-name="semicolon" unicode=";" horiz-adv-x="254" 
d="M75.5 470.5q18.5 18.5 52.5 18.5t52 -18.5t18 -52.5q0 -35 -18 -53.5t-52 -18.5t-52.5 18.5t-18.5 53.5q0 34 18.5 52.5zM106 -9q-30 8 -39.5 21.5t-9.5 48.5q0 34 18.5 53t52.5 19t53 -19.5t19 -54.5q-1 -39 -9.5 -63t-33.5 -59l-50 -68l-40 33z" />
    <glyph glyph-name="less" unicode="&#x3c;" horiz-adv-x="504" 
d="M475 90l-446 200v89l446 201v-92l-357 -154l357 -152v-92z" />
    <glyph glyph-name="equal" unicode="=" horiz-adv-x="504" 
d="M475 390h-446v77h446v-77zM475 201h-446v77h446v-77z" />
    <glyph glyph-name="greater" unicode="&#x3e;" horiz-adv-x="504" 
d="M475 290l-446 -200v92l357 152l-357 154v92l446 -201v-89z" />
    <glyph glyph-name="question" unicode="?" horiz-adv-x="456" 
d="M162 212v115q0 45 20 72.5t59 58.5q27 21 40.5 36.5t13.5 36.5q0 27 -20.5 43.5t-60.5 16.5q-74 0 -126 -63l-78 88q40 48 97 72.5t122 24.5q95 0 151 -43.5t56 -114.5q0 -38 -13 -66t-31 -46.5t-48 -43.5q-31 -25 -46.5 -43.5t-15.5 -42.5v-101h-120zM172.5 106.5
q17.5 17.5 49.5 17.5t49 -17.5t17 -49.5q0 -33 -17 -50.5t-49 -17.5t-49.5 17.5t-17.5 50.5q0 32 17.5 49.5z" />
    <glyph glyph-name="at" unicode="@" horiz-adv-x="904" 
d="M645 614q91 -50 141 -141t50 -212q0 -67 -20 -116t-53.5 -75t-73.5 -26q-50 0 -87.5 15t-58.5 41q-53 -39 -122 -39q-57 0 -102.5 26t-71.5 71.5t-26 102.5t26 102.5t71.5 71t102.5 25.5q55 0 101 -26v1h103v-255q0 -25 16 -39t39 -14q26 0 46 38.5t20 95.5
q0 91 -39 160.5t-109.5 108t-163.5 38.5q-89 0 -160.5 -40.5t-111.5 -112t-40 -160.5q0 -86 41.5 -155t115.5 -107.5t167 -38.5q29 0 63.5 9t57.5 22l52 -83q-30 -22 -81.5 -36.5t-99.5 -14.5q-120 0 -215.5 53t-149.5 146t-54 211q0 116 53.5 207.5t148 143.5t213.5 52
q120 0 211 -50zM495 193q27 27 27 68t-27 67.5t-68 26.5q-40 0 -66 -26.5t-26 -67.5t26 -68t66 -27q41 0 68 27z" />
    <glyph glyph-name="A" unicode="A" horiz-adv-x="706" 
d="M668 0h-139l-52 141h-277l-52 -141h-140l260 700h140zM339 513l-93 -248h185z" />
    <glyph glyph-name="B" unicode="B" horiz-adv-x="635" 
d="M556 300.5q20 -42.5 20 -89.5q0 -57 -27.5 -105.5t-74.5 -77t-102 -28.5h-316v700h301q52 0 96 -27t70 -72.5t26 -97.5q0 -36 -12.5 -70t-35.5 -61q35 -29 55 -71.5zM186 576v-157l171 1q28 0 50 22.5t22 55.5t-22 55.5t-50 22.5h-171zM372 125q33 0 56 26t23 61
q0 36 -23 62t-56 26h-186v-175h186z" />
    <glyph glyph-name="C" unicode="C" horiz-adv-x="768" 
d="M86.5 529q48.5 83 131.5 131.5t181 48.5q100 0 185 -51.5t131 -136.5l-115 -61q-30 53 -84 85.5t-117 32.5q-62 0 -115.5 -31t-84.5 -84t-31 -115t31 -115t84.5 -84t115.5 -31q65 0 118.5 33t83.5 88l115 -63q-46 -86 -131 -137.5t-186 -51.5q-98 0 -181 48.5
t-131.5 131.5t-48.5 181t48.5 181z" />
    <glyph glyph-name="D" unicode="D" horiz-adv-x="760" 
d="M513.5 653.5q82.5 -46.5 130.5 -127t48 -178.5t-48 -177.5t-130.5 -125t-180.5 -45.5h-277v700h277q98 0 180.5 -46.5zM333 124q63 0 115.5 30t83 81.5t30.5 113.5t-30.5 114.5t-83 82.5t-115.5 30h-147v-452h147z" />
    <glyph glyph-name="E" unicode="E" horiz-adv-x="536" 
d="M183 294v-170h294v-124h-424v700h419v-124h-289v-159h264v-123h-264z" />
    <glyph glyph-name="F" unicode="F" horiz-adv-x="534" 
d="M475 700v-124h-289v-168h278v-124h-278v-284h-130v700h419z" />
    <glyph glyph-name="G" unicode="G" horiz-adv-x="817" 
d="M374 370h377v-58q0 -88 -47.5 -162.5t-128.5 -118.5t-176 -44q-98 0 -181 48.5t-131.5 131.5t-48.5 181t48.5 181t131.5 131.5t181 48.5q90 0 167.5 -42t126.5 -113l-103 -80q-31 47 -82 75.5t-109 28.5q-62 0 -115.5 -31t-84.5 -84t-31 -115t31 -115t84.5 -84t115.5 -31
q72 0 126.5 35t78.5 93h-230v124z" />
    <glyph glyph-name="H" unicode="H" horiz-adv-x="725" 
d="M509 420v280h131v-700h-131v297h-323v-297h-130v700h130v-280h323z" />
    <glyph glyph-name="I" unicode="I" horiz-adv-x="272" 
d="M56 0v700h130v-700h-130z" />
    <glyph glyph-name="J" unicode="J" horiz-adv-x="573" 
d="M363 700h131v-479q0 -67 -31 -120.5t-87.5 -83.5t-128.5 -30q-79 0 -136.5 33t-90.5 96l107 61q24 -40 51.5 -56.5t73.5 -16.5q53 0 82 29.5t29 87.5v479z" />
    <glyph glyph-name="K" unicode="K" horiz-adv-x="675" 
d="M641 1l-163 -1l-222 279l-70 -81v-198h-130v700h130v-300l263 300h168l-275 -320z" />
    <glyph glyph-name="L" unicode="L" horiz-adv-x="528" 
d="M186 700v-576h296v-124h-426v700h130z" />
    <glyph glyph-name="M" unicode="M" horiz-adv-x="822" 
d="M606 698v2h131v-700h-131v461l-193 -324h-33l-194 325v-462h-130v700h130v-2l3 2l207 -349l207 349z" />
    <glyph glyph-name="N" unicode="N" horiz-adv-x="688" 
d="M471 260v440h131v-700h-111l-305 474v-474h-130v700h130v-1l1 1z" />
    <glyph glyph-name="O" unicode="O" horiz-adv-x="827" 
d="M218 35.5q-83 48.5 -131.5 131.5t-48.5 181t48.5 181t131.5 131.5t181 48.5t181 -48.5t131.5 -131.5t48.5 -181t-48.5 -181t-131.5 -131.5t-181 -48.5t-181 48.5zM514 149q53 31 84 84t31 115t-31 115t-84 84t-115 31t-115.5 -31t-84.5 -84t-31 -115t31 -115t84.5 -84
t115.5 -31t115 31z" />
    <glyph glyph-name="P" unicode="P" horiz-adv-x="599" 
d="M425 669.5q53 -30.5 83.5 -83.5t30.5 -115t-30.5 -114.5t-83.5 -83.5t-115 -31h-124v-242h-130v700h254q62 0 115 -30.5zM310 367q43 0 74 30.5t31 73.5q0 44 -30.5 74.5t-74.5 30.5h-124v-209h124z" />
    <glyph glyph-name="Q" unicode="Q" horiz-adv-x="845" 
d="M740 229.5q-20 -56.5 -57 -104.5l72 -72l-92 -93l-78 78q-88 -51 -186 -51t-181 48.5t-131.5 131.5t-48.5 181t48.5 181t131.5 131.5t181 48.5t181 -48.5t131.5 -131.5t48.5 -181q0 -62 -20 -118.5zM487 136l-81 81l93 93l91 -91q39 60 39 129q0 62 -31 115t-84 84
t-115 31t-115.5 -31t-84.5 -84t-31 -115t31 -115t84.5 -84t115.5 -31q48 0 88 18z" />
    <glyph glyph-name="R" unicode="R" horiz-adv-x="648" 
d="M450 0l-137 242h-130v-242h-130v700h283q62 0 115 -30.5t83.5 -83.5t30.5 -115q0 -64 -32 -117t-86 -83l153 -271h-150zM183 576v-209h153q43 0 74 30.5t31 73.5q0 44 -30.5 74.5t-74.5 30.5h-153z" />
    <glyph glyph-name="S" unicode="S" horiz-adv-x="647" 
d="M131 33q-77 46 -108 124l126 65q44 -107 175 -107q40 0 70.5 13t46.5 32.5t16 40.5q0 25 -18 41.5t-51.5 28.5t-100.5 30q-71 20 -120 43.5t-80.5 63.5t-31.5 101q0 62 34 108.5t91 71t124 24.5q92 0 161.5 -40.5t106.5 -113.5l-128 -64q-42 89 -140 89q-50 0 -81.5 -23
t-31.5 -54q0 -26 15 -40.5t41.5 -24t97.5 -29.5q78 -22 129 -45.5t85.5 -65t34.5 -105.5q0 -63 -35.5 -110.5t-98 -73.5t-139.5 -26q-113 0 -190 46z" />
    <glyph glyph-name="T" unicode="T" horiz-adv-x="570" 
d="M528 700v-124h-193v-576h-131v576h-191v124h515z" />
    <glyph glyph-name="U" unicode="U" horiz-adv-x="665" 
d="M456 700h130v-464q0 -73 -35 -129.5t-96 -88t-138 -31.5t-138 31.5t-95.5 88t-34.5 129.5v464h131v-464q0 -54 39 -86.5t98 -32.5q63 0 101 32t38 87v464z" />
    <glyph glyph-name="V" unicode="V" horiz-adv-x="668" 
d="M322 185l179 515h138l-243 -700h-147l-243 700h138z" />
    <glyph glyph-name="W" unicode="W" horiz-adv-x="1012" 
d="M703 206l131 494h135l-193 -700h-141l-144 478l-144 -478h-141l-193 700h135l131 -494l144 494h136z" />
    <glyph glyph-name="X" unicode="X" horiz-adv-x="698" 
d="M424 351l228 -351h-157l-161 251l-162 -251h-156l227 351l-226 349h156l161 -249l160 249h157z" />
    <glyph glyph-name="Y" unicode="Y" horiz-adv-x="673" 
d="M322 401l169 299h148l-252 -450v-250h-131v252l-252 448h148z" />
    <glyph glyph-name="Z" unicode="Z" horiz-adv-x="564" 
d="M501 603l-299 -479h303v-124h-466v97l299 479h-296v124h459v-97z" />
    <glyph glyph-name="bracketleft" unicode="[" horiz-adv-x="278" 
d="M136 5h124v-83h-213v868h213v-82h-124v-703z" />
    <glyph glyph-name="backslash" unicode="\" horiz-adv-x="364" 
d="M237 -20l-237 707h127l237 -707h-127z" />
    <glyph glyph-name="bracketright" unicode="]" horiz-adv-x="278" 
d="M18 790h213v-868h-213v83h124v703h-124v82z" />
    <glyph glyph-name="asciicircum" unicode="^" horiz-adv-x="440" 
d="M421 333h-91l-110 250l-109 -250h-92l157 334h90z" />
    <glyph glyph-name="underscore" unicode="_" horiz-adv-x="564" 
d="M-3 -40h570v-83h-570v83z" />
    <glyph glyph-name="grave" unicode="`" horiz-adv-x="249" 
d="M0 700h114l135 -144h-86z" />
    <glyph glyph-name="a" unicode="a" horiz-adv-x="617" 
d="M425 500h124v-500h-124v52q-56 -66 -145 -66q-75 0 -132 34t-88 94t-31 135t31 135t88 94.5t132 34.5q87 0 145 -66v53zM384.5 144q40.5 42 40.5 106t-40 105t-102 41q-58 0 -95 -43t-37 -104q0 -62 37 -104.5t95 -42.5q61 0 101.5 42z" />
    <glyph glyph-name="b" unicode="b" horiz-adv-x="624" 
d="M440 478.5q57 -34.5 87.5 -94.5t30.5 -135t-30.5 -135t-87.5 -94t-133 -34q-89 0 -146 67v-53h-124v700h124v-255q56 68 146 68q76 0 133 -34.5zM399.5 144.5q37.5 42.5 37.5 104.5q0 61 -37.5 104t-95.5 43q-62 0 -101.5 -41t-39.5 -105t40 -106t101 -42q58 0 95.5 42.5
z" />
    <glyph glyph-name="c" unicode="c" horiz-adv-x="553" 
d="M507 97q-37 -51 -93 -81t-121 -30q-72 0 -132.5 35.5t-96 96t-35.5 131.5t35.5 131.5t96 96t132.5 35.5q64 0 120 -29.5t93 -79.5l-103 -69q-46 55 -110 55q-38 0 -70 -19t-51 -51t-19 -70t19 -70t51 -50.5t70 -18.5q33 0 61 14.5t49 40.5z" />
    <glyph glyph-name="d" unicode="d" horiz-adv-x="615" 
d="M425 700h123v-700h-123v52q-56 -66 -145 -66q-75 0 -132 34t-88 94t-31 135t31 135t88 94.5t132 34.5q87 0 145 -66v253zM384.5 144q40.5 42 40.5 106t-40 105t-102 41q-58 0 -95 -43t-37 -104q0 -62 37 -104.5t95 -42.5q61 0 101.5 42z" />
    <glyph glyph-name="e" unicode="e" horiz-adv-x="602" 
d="M422.5 477.5q57.5 -35.5 89.5 -95.5t32 -133q0 -24 -4 -44h-387q13 -51 53 -81.5t97 -30.5q37 0 70.5 16t50.5 41l95 -56q-35 -52 -90.5 -79.5t-127.5 -27.5q-80 0 -142 34t-96 94t-34 135q0 74 33.5 134t94 94.5t136.5 34.5q72 0 129.5 -35.5zM427 302q-7 48 -44 75.5
t-92 27.5q-38 0 -69.5 -14t-50.5 -38t-20 -51h276z" />
    <glyph glyph-name="f" unicode="f" horiz-adv-x="373" 
d="M337 595q-26 3 -46 3q-35 0 -51 -13t-16 -48v-37h112v-111h-112v-389h-123v389h-83v111h83v45q0 95 39 131.5t118 36.5q31 0 79 -5v-113z" />
    <glyph glyph-name="g" unicode="g" horiz-adv-x="638" 
d="M442 500h123v-475q0 -71 -35.5 -125t-98.5 -83.5t-141 -29.5q-87 0 -157.5 33.5t-99.5 87.5l106 61q14 -29 55.5 -48.5t98.5 -19.5q64 0 106.5 34.5t42.5 89.5v27q-56 -66 -145 -66q-75 0 -132 34t-88 94t-31 135t31 135t88 94.5t132 34.5q87 0 145 -66v53zM401.5 144
q40.5 42 40.5 106t-40 105t-102 41q-58 0 -95 -43t-37 -104q0 -62 37 -104.5t95 -42.5q61 0 101.5 42z" />
    <glyph glyph-name="h" unicode="h" horiz-adv-x="554" 
d="M487 0h-124v296q0 56 -31.5 80.5t-73.5 24.5q-34 0 -61 -19.5t-36 -63.5v-318h-124v700h124v-241q26 23 58 37t68 14q44 0 89 -18.5t78 -65.5t33 -127v-299z" />
    <glyph glyph-name="i" unicode="i" horiz-adv-x="254" 
d="M50 0v500h123v-500h-123zM65.5 635q-19.5 19 -19.5 47t19.5 47.5t46.5 19.5t46.5 -19.5t19.5 -47.5t-19.5 -47t-46.5 -19t-46.5 19z" />
    <glyph glyph-name="j" unicode="j" horiz-adv-x="285" 
d="M88.5 601.5q-20.5 19.5 -20.5 52.5t20.5 52.5t54.5 19.5t54.5 -19.5t20.5 -52.5t-20.5 -52.5t-54.5 -19.5t-54.5 19.5zM81 500h124v-521q0 -63 -28.5 -108t-79.5 -67t-117 -17v119q8 -1 22 -1q41 0 60 17.5t19 56.5v521z" />
    <glyph glyph-name="k" unicode="k" horiz-adv-x="568" 
d="M529 0h-155l-140 186l-73 -79v-107h-124v700h124v-411l188 211h172l-203 -221z" />
    <glyph glyph-name="l" unicode="l" horiz-adv-x="278" 
d="M168.5 118q7.5 -7 24.5 -7q12 0 32 3v-114q-37 -6 -69 -6q-58 0 -88.5 30.5t-30.5 108.5v567h124v-559q0 -16 7.5 -23z" />
    <glyph glyph-name="m" unicode="m" horiz-adv-x="880" 
d="M702.5 494.5q45.5 -18.5 78 -66.5t32.5 -129v-299h-124v299q0 56 -31.5 80.5t-73.5 24.5q-41 0 -69 -29.5t-28 -94.5v-280h-124v299q0 56 -31.5 80.5t-73.5 24.5q-41 0 -69 -29t-28 -95v-280h-124v500h124v-39q57 52 126 52q46 0 93.5 -20.5t75.5 -67.5q25 38 66.5 63
t90.5 25q44 0 89.5 -18.5z" />
    <glyph glyph-name="n" unicode="n" horiz-adv-x="557" 
d="M380 494.5q45 -18.5 77.5 -66.5t32.5 -129v-299h-124v299q0 56 -31.5 80.5t-73.5 24.5q-41 0 -70.5 -29.5t-29.5 -94.5v-280h-124v500h124v-42q27 25 60 40t70 15q44 0 89 -18.5z" />
    <glyph glyph-name="o" unicode="o" horiz-adv-x="615" 
d="M160.5 21.5q-60.5 35.5 -96 96t-35.5 131.5t35.5 131.5t96 96t132.5 35.5q71 0 131 -35.5t95.5 -96t35.5 -131.5t-35.5 -131.5t-95.5 -96t-131 -35.5q-72 0 -132.5 35.5zM362 128.5q32 18.5 51 50.5t19 70t-19 70t-51 51t-70 19t-70 -19t-50.5 -51t-18.5 -70t18.5 -70
t50.5 -50.5t70 -18.5t70 18.5z" />
    <glyph glyph-name="p" unicode="p" horiz-adv-x="615" 
d="M438 479q57 -34 87.5 -94t30.5 -135t-30.5 -135t-87.5 -94.5t-132 -34.5q-88 0 -145 65v-251h-124v700h124v-52q57 65 145 65q75 0 132 -34zM397.5 146q37.5 43 37.5 104q0 62 -37.5 105t-95.5 43q-61 0 -101 -42.5t-40 -106.5t39.5 -105t101.5 -41q58 0 95.5 43z" />
    <glyph glyph-name="q" unicode="q" horiz-adv-x="615" 
d="M425 500h123v-671l-123 -29v252q-58 -66 -145 -66q-75 0 -132 34.5t-88 94.5t-31 135t31 135t88 94t132 34q89 0 145 -66v53zM385 144q40 41 40 105t-40.5 106.5t-101.5 42.5q-58 0 -95 -43t-37 -105q0 -61 37 -104t95 -43q62 0 102 41z" />
    <glyph glyph-name="r" unicode="r" horiz-adv-x="374" 
d="M332 500l-9 -118q-10 3 -22 3q-62 0 -102 -34.5t-40 -95.5v-255h-124v500h124v-91q17 39 58 65t99 26h16z" />
    <glyph glyph-name="s" unicode="s" horiz-adv-x="519" 
d="M192.5 328.5q23.5 -10.5 74.5 -21.5q58 -12 97 -27t67.5 -47.5t28.5 -87.5q0 -49 -29.5 -85t-79 -54.5t-107.5 -18.5q-78 0 -134.5 30t-83.5 86l102 53q25 -69 116 -69q39 0 67.5 15t28.5 43q0 24 -25.5 35.5t-82.5 25.5q-59 14 -96 28t-64 43.5t-27 78.5q0 48 27 83.5
t72.5 54.5t100.5 19q65 0 117 -27t80 -77l-101 -51q-26 56 -96 56q-35 0 -55.5 -14.5t-20.5 -39.5q0 -21 23.5 -31.5z" />
    <glyph glyph-name="t" unicode="t" horiz-adv-x="403" 
d="M247 124q16 -13 51 -13q21 0 46 3v-114q-47 -5 -78 -5q-80 0 -119.5 36.5t-39.5 131.5v226h-94v111h94v123l124 42v-165h111v-111h-111v-218q0 -34 16 -47z" />
    <glyph glyph-name="u" unicode="u" horiz-adv-x="561" 
d="M373 500h123v-500h-123v42q-27 -25 -60 -40t-70 -15q-44 0 -89.5 18.5t-78 66.5t-32.5 129v299h124v-299q0 -56 31.5 -80.5t73.5 -24.5t71.5 29.5t29.5 94.5v280z" />
    <glyph glyph-name="v" unicode="v" horiz-adv-x="566" 
d="M268 150l131 350h131l-186 -500h-152l-186 500h131z" />
    <glyph glyph-name="w" unicode="w" horiz-adv-x="807" 
d="M542 197l93 303h130l-162 -500h-123l-94 297l-94 -297h-121l-159 500h130l90 -301l88 301h132z" />
    <glyph glyph-name="x" unicode="x" horiz-adv-x="565" 
d="M374 500h152l-182 -250l182 -250l-152 -1l-106 146l-107 -146l-152 1l182 250l-182 250h152l107 -146z" />
    <glyph glyph-name="y" unicode="y" horiz-adv-x="562" 
d="M397 500h130l-175 -501q-39 -103 -107.5 -154.5t-161.5 -44.5v120q6 -1 18 -1q80 0 125 97l-220 484h133l147 -318z" />
    <glyph glyph-name="z" unicode="z" horiz-adv-x="493" 
d="M423 420l-218 -302h228v-118h-400v80l223 303h-213v117h380v-80z" />
    <glyph glyph-name="braceleft" unicode="{" horiz-adv-x="287" 
d="M4 390q25 0 38.5 18.5t13.5 48.5v174q0 47 21 83t56.5 55.5t75.5 19.5h60v-82h-60q-27 0 -45.5 -21t-18.5 -54v-187q0 -70 -45 -90q45 -18 45 -89v-187q0 -32 18.5 -53.5t45.5 -21.5h60v-83h-60q-40 0 -75.5 19.5t-56.5 55.5t-21 83v174q0 30 -13.5 48.5t-38.5 18.5v70z
" />
    <glyph glyph-name="bar" unicode="|" horiz-adv-x="216" 
d="M149 -80h-82v827h82v-827z" />
    <glyph glyph-name="braceright" unicode="}" horiz-adv-x="286" 
d="M283 320q-25 0 -38.5 -18.5t-13.5 -48.5v-174q0 -47 -21 -83t-56.5 -55.5t-75.5 -19.5h-61v83h61q26 0 44.5 21.5t18.5 53.5v187q0 70 46 89q-46 20 -46 90v187q0 33 -18.5 54t-44.5 21h-61v82h61q40 0 75.5 -19.5t56.5 -55.5t21 -83v-174q0 -30 13.5 -48.5t38.5 -18.5
v-70z" />
    <glyph glyph-name="asciitilde" unicode="~" horiz-adv-x="510" 
d="M484 657q-9 -109 -41 -176.5t-107 -67.5q-35 0 -57 16t-33 38.5t-23 57.5q-12 34 -21.5 49.5t-26.5 15.5q-27 0 -42 -49t-22 -129l-85 10q10 112 42.5 178t106.5 66q35 0 57 -16.5t33.5 -39t23.5 -57.5q12 -34 21 -49.5t26 -15.5q31 0 44.5 50.5t19.5 128.5z" />
    <glyph glyph-name="uni00A0" unicode="&#xa0;" horiz-adv-x="257" 
 />
    <glyph glyph-name="exclamdown" unicode="&#xa1;" horiz-adv-x="253" 
d="M76.5 473.5q18.5 18.5 52.5 18.5t52 -18.5t18 -52.5q0 -35 -18 -53.5t-52 -18.5q-35 0 -53 18.5t-18 53.5q0 34 18.5 52.5zM52 -178l21 452h109l19 -452h-149z" />
    <glyph glyph-name="cent" unicode="&#xa2;" horiz-adv-x="499" 
d="M59 360q26 53 73.5 87.5t108.5 43.5v74h90v-74q50 -7 87 -29t60 -54l-81 -75q-25 37 -71 45v-272q44 8 71 45l81 -76q-23 -31 -60.5 -53.5t-86.5 -29.5v-92h-90v92q-93 14 -150.5 82t-57.5 168q0 65 26 118zM186 153q25 -37 67 -48v273q-44 -11 -68 -47.5t-24 -88.5
t25 -89z" />
    <glyph glyph-name="sterling" unicode="&#xa3;" horiz-adv-x="547" 
d="M23 269v79h77q-28 35 -41.5 62.5t-13.5 60.5q0 61 35 108t91 72.5t116 25.5q168 0 230 -120l-110 -64q-13 33 -41 52.5t-63 19.5q-47 0 -77 -27t-30 -70q0 -29 8 -46.5t31 -50.5l16 -23h141v-79h-118q4 -12 4 -27q0 -30 -16.5 -58.5t-45.5 -47.5q19 7 47 7
q19 0 35.5 -4.5t36.5 -13.5q14 -6 30 -10.5t30 -4.5q29 0 52 10.5t35 26.5l54 -110q-47 -50 -146 -50q-31 0 -54.5 6.5t-52.5 18.5q-23 10 -39.5 15t-34.5 5q-44 0 -116 -39l-47 95q51 24 81 56t30 70q0 26 -13 55h-121z" />
    <glyph glyph-name="currency" unicode="&#xa4;" horiz-adv-x="543" 
d="M192.5 122q-37.5 14 -66.5 40l-66 -65l-25 26l65 65q-24 31 -37 68t-13 77q0 83 50 145l-66 67l26 25l66 -66q59 53 145 53q41 0 78.5 -13.5t66.5 -38.5l66 65l26 -25l-66 -67q50 -61 50 -145q0 -83 -50 -145l66 -65l-26 -26l-65 65q-62 -54 -146 -54q-41 0 -78.5 14z
M363 174.5q41 24.5 64 66.5t23 92t-23 92t-64 66.5t-92 24.5q-50 0 -91 -24.5t-64.5 -66.5t-23.5 -92t23.5 -92t64.5 -66.5t91 -24.5q51 0 92 24.5z" />
    <glyph glyph-name="yen" unicode="&#xa5;" horiz-adv-x="644" 
d="M392 0h-139v115h-229v77h229v82h-229v77h180l-207 316h157l169 -270l167 270h157l-207 -316h182v-77h-230v-82h230v-77h-230v-115z" />
    <glyph glyph-name="brokenbar" unicode="&#xa6;" horiz-adv-x="216" 
d="M67 687h82v-316h-82v316zM67 296h82v-316h-82v316z" />
    <glyph glyph-name="section" unicode="&#xa7;" horiz-adv-x="483" 
d="M423 250.5q-22 -33.5 -63 -53.5q85 -35 85 -122q0 -72 -58 -114t-150 -42q-129 0 -213 79l52 78q29 -30 72.5 -50.5t88.5 -20.5q41 0 65 15.5t24 43.5t-26.5 41.5t-84.5 26.5q-56 14 -91 27.5t-60.5 43t-25.5 79.5q0 46 29.5 79t69.5 46q-99 37 -99 126q0 41 25 74
t70 51.5t101 18.5q127 0 193 -68l-49 -73q-25 25 -61.5 40t-76.5 15q-38 0 -60.5 -15t-22.5 -41q0 -24 25.5 -36t79.5 -23q57 -13 93.5 -27t63 -44t26.5 -80q0 -41 -22 -74.5zM301 349q-22 17 -64 27q-43 -10 -61.5 -29t-18.5 -47q0 -54 106 -73q60 26 60 75q0 30 -22 47z
" />
    <glyph glyph-name="dieresis" unicode="&#xa8;" horiz-adv-x="293" 
d="M88 563.5q-19 -19.5 -47 -19.5t-47 19.5t-19 47.5q0 27 19 46.5t47 19.5t47 -19t19 -47t-19 -47.5zM299.5 563.5q-19.5 -19.5 -47.5 -19.5q-27 0 -46.5 19.5t-19.5 47.5q0 27 19.5 46.5t46.5 19.5q28 0 47.5 -19t19.5 -47t-19.5 -47.5z" />
    <glyph glyph-name="copyright" unicode="&#xa9;" horiz-adv-x="778" 
d="M687.5 161q-46.5 -79 -125.5 -125.5t-173 -46.5q-93 0 -172.5 46.5t-126 126t-46.5 172.5q0 94 46.5 173t125.5 125.5t173 46.5t173 -46.5t125.5 -125.5t46.5 -173t-46.5 -173zM656.5 489q-41.5 71 -112.5 112.5t-155 41.5q-83 0 -154 -41.5t-113 -112.5t-42 -155
q0 -83 42 -154t113 -113t154 -42q84 0 155 42t112.5 113t41.5 154q0 84 -41.5 155zM543 191q-28 -32 -66 -50t-83 -18q-57 0 -104.5 28t-75.5 76.5t-28 107.5q0 60 28 108t75.5 75.5t104.5 27.5q45 0 82.5 -17.5t65.5 -49.5l-31 -30q-19 26 -50.5 41.5t-66.5 15.5
q-44 0 -81.5 -22t-59.5 -61t-22 -88q0 -48 22 -88t59.5 -62.5t81.5 -22.5q35 0 66.5 16t51.5 43z" />
    <glyph glyph-name="ordfeminine" unicode="&#xaa;" horiz-adv-x="617" 
d="M425 500h124v-500h-124v52q-56 -66 -145 -66q-75 0 -132 34t-88 94t-31 135t31 135t88 94.5t132 34.5q87 0 145 -66v53zM384.5 144q40.5 42 40.5 106t-40 105t-102 41q-58 0 -95 -43t-37 -104q0 -62 37 -104.5t95 -42.5q61 0 101.5 42z" />
    <glyph glyph-name="guillemotleft" unicode="&#xab;" horiz-adv-x="521" 
d="M305 63h-115l-160 180l160 177h115l-160 -177zM491 63h-115l-160 180l160 177h115l-160 -177z" />
    <glyph glyph-name="logicalnot" unicode="&#xac;" horiz-adv-x="515" 
d="M475 467v-266h-79v189h-367v77h446z" />
    <glyph glyph-name="uni00AD" unicode="&#xad;" horiz-adv-x="300" 
d="M284 190h-240v105h240v-105z" />
    <glyph glyph-name="registered" unicode="&#xae;" horiz-adv-x="494" 
d="M430.5 358.5q-28.5 -48.5 -77 -77t-106.5 -28.5t-106.5 28.5t-77 77t-28.5 106.5t28.5 106.5t77 77t106.5 28.5t106.5 -28.5t77 -77t28.5 -106.5t-28.5 -106.5zM403 556q-24 41 -65.5 65t-90.5 24t-90.5 -24t-65.5 -65t-24 -91q0 -49 24 -90t65.5 -65.5t90.5 -24.5
t90.5 24.5t65.5 65.5t24 90q0 50 -24 91zM305 343l-63 96h-42v-96h-34v243h99q32 0 55.5 -20.5t23.5 -53.5q0 -23 -11 -39.5t-26 -24.5t-25 -8l65 -97h-42zM295.5 544q-13.5 13 -30.5 13h-65v-87h65q17 0 30.5 12t13.5 30q0 19 -13.5 32z" />
    <glyph glyph-name="macron" unicode="&#xaf;" horiz-adv-x="363" 
d="M363 587h-363v71h363v-71z" />
    <glyph glyph-name="degree" unicode="&#xb0;" horiz-adv-x="309" 
d="M271 475.5q-18 -30.5 -49.5 -48.5t-67.5 -18t-67 18t-49 48.5t-18 66.5t18 67t49 49.5t67 18.5q37 0 68 -18t49 -49t18 -68q0 -36 -18 -66.5zM201.5 590q-19.5 20 -47.5 20q-27 0 -46 -20t-19 -48q0 -27 19 -46t46 -19t47 19t20 46q0 28 -19.5 48z" />
    <glyph glyph-name="plusminus" unicode="&#xb1;" horiz-adv-x="504" 
d="M475 326h-181v-204h-84v204h-181v77h181v196h84v-196h181v-77zM475 0h-446v77h446v-77z" />
    <glyph glyph-name="uni00B2" unicode="&#xb2;" horiz-adv-x="631" 
d="M564 124v-123h-521v30q7 99 58 192t156 135q22 10 33 14q50 21 77.5 35.5t46 35t18.5 48.5q0 33 -18.5 57t-46.5 36t-56 12q-61 0 -104 -25t-52 -75l-123 13q9 64 49 110t100.5 70t129.5 24q62 0 119 -26t92 -75t35 -115t-31.5 -110t-82.5 -72.5t-137 -61.5
q-75 -29 -110 -129h368z" />
    <glyph glyph-name="uni00B3" unicode="&#xb3;" horiz-adv-x="631" 
d="M534 300.5q23 -42.5 23 -92.5q0 -62 -34.5 -112t-94 -78.5t-132.5 -28.5q-68 0 -125.5 26t-92.5 71.5t-38 102.5l135 10q9 -40 43 -64.5t78 -24.5q57 0 94 29.5t37 74.5t-37 74t-94 29h-37l1 105h36q50 0 82.5 24.5t32.5 62.5t-33 63.5t-84 25.5q-36 0 -67 -17t-44 -46
l-129 8q7 48 40.5 87t85.5 61t114 22q70 0 125.5 -26.5t87 -73t31.5 -104.5q0 -41 -18 -76t-51 -61q42 -29 65 -71.5z" />
    <glyph glyph-name="acute" unicode="&#xb4;" horiz-adv-x="249" 
d="M0 556l135 144h114l-163 -144h-86z" />
    <glyph glyph-name="uni00B5" unicode="&#xb5;" horiz-adv-x="582" 
d="M187 -184h-123v667h123v-295q0 -91 92 -91q34 0 63 16.5t48 40.5v329h123v-400q0 -55 27 -77l-111 -10q-36 14 -39 66q-26 -29 -64 -47t-77 -18q-33 0 -62 15v-196z" />
    <glyph glyph-name="paragraph" unicode="&#xb6;" horiz-adv-x="449" 
d="M340 -100v706h-80v-706h-61v423q-47 0 -86.5 23t-62.5 62.5t-23 86.5t23 86.5t62.5 62.5t86.5 23h202v-767h-61z" />
    <glyph glyph-name="periodcentered" unicode="&#xb7;" horiz-adv-x="255" 
d="M60 174v140h137v-140h-137z" />
    <glyph glyph-name="cedilla" unicode="&#xb8;" horiz-adv-x="220" 
d="M46 -186.5q-29 8.5 -46 23.5l25 50q38 -30 81 -30q22 0 37 9t15 25q0 27 -29 27q-20 0 -33 -15l-45 26l31 82h61l-26 -62q14 10 36 10q28 0 47.5 -19.5t19.5 -50.5q0 -38 -32 -61t-79 -23q-34 0 -63 8.5z" />
    <glyph glyph-name="uni00B9" unicode="&#xb9;" horiz-adv-x="631" 
d="M373 700v-576h190v-124h-525v124h204v436l-109 -66l-68 102l177 103v1h131z" />
    <glyph glyph-name="ordmasculine" unicode="&#xba;" horiz-adv-x="615" 
d="M160.5 21.5q-60.5 35.5 -96 96t-35.5 131.5t35.5 131.5t96 96t132.5 35.5q71 0 131 -35.5t95.5 -96t35.5 -131.5t-35.5 -131.5t-95.5 -96t-131 -35.5q-72 0 -132.5 35.5zM362 128.5q32 18.5 51 50.5t19 70t-19 70t-51 51t-70 19t-70 -19t-50.5 -51t-18.5 -70t18.5 -70
t50.5 -50.5t70 -18.5t70 18.5z" />
    <glyph glyph-name="guillemotright" unicode="&#xbb;" horiz-adv-x="521" 
d="M305 243l-160 -180h-115l160 180l-160 177h115zM491 243l-160 -180h-115l160 180l-160 177h115z" />
    <glyph glyph-name="questiondown" unicode="&#xbf;" horiz-adv-x="456" 
d="M304 506v-139h-137v139h137zM295 294v-79q0 -32 -11.5 -55.5t-27 -39t-41.5 -36.5q-27 -21 -40.5 -37t-13.5 -37q0 -26 20.5 -42.5t60.5 -16.5q37 0 69.5 16.5t56.5 46.5l79 -89q-40 -48 -97.5 -72.5t-121.5 -24.5q-63 0 -110 20t-72.5 56t-25.5 82q0 38 13.5 66.5
t32 47.5t47.5 42q32 27 47 44.5t15 41.5v66h120z" />
    <glyph glyph-name="Agrave" unicode="&#xc0;" horiz-adv-x="706" 
d="M668 0h-139l-52 141h-277l-52 -141h-140l260 700h140zM339 513l-93 -248h185zM121 985h132l135 -144h-127z" />
    <glyph glyph-name="Aacute" unicode="&#xc1;" horiz-adv-x="706" 
d="M668 0h-139l-52 141h-277l-52 -141h-140l260 700h140zM339 513l-93 -248h185zM298 833l135 144h132l-140 -144h-127z" />
    <glyph glyph-name="Acircumflex" unicode="&#xc2;" horiz-adv-x="706" 
d="M668 0h-139l-52 141h-277l-52 -141h-140l260 700h140zM339 513l-93 -248h185zM492 830h-78l-74 90l-71 -90h-76l92 144h111z" />
    <glyph glyph-name="Atilde" unicode="&#xc3;" horiz-adv-x="706" 
d="M668 0h-139l-52 141h-277l-52 -141h-140l260 700h140zM339 513l-93 -248h185zM347 851.5q-16 10.5 -34 30.5q-13 15 -21.5 21.5t-19.5 6.5q-17 0 -27.5 -16t-10.5 -47h-65q0 65 27.5 99.5t79.5 34.5q25 0 40 -10t35 -31q12 -14 21.5 -21t20.5 -7q17 0 27 16t10 47h65
q0 -65 -27.5 -99.5t-79.5 -34.5q-25 0 -41 10.5z" />
    <glyph glyph-name="Adieresis" unicode="&#xc4;" horiz-adv-x="706" 
d="M668 0h-139l-52 141h-277l-52 -141h-140l260 700h140zM339 513l-93 -248h185zM283 851q-19 -19 -47 -19t-47 19t-19 47t19 47t47 19t47 -19t19 -47t-19 -47zM494.5 851q-19.5 -19 -47.5 -19q-27 0 -46.5 19t-19.5 47t19.5 47t46.5 19q28 0 47.5 -19t19.5 -47t-19.5 -47z
" />
    <glyph glyph-name="Aring" unicode="&#xc5;" horiz-adv-x="706" 
d="M668 0h-139l-52 141h-277l-52 -141h-140l260 700h140zM339 513l-93 -248h185zM266 826q-31 31 -31 74t31 74t74 31t73 -31t30 -74t-30 -74t-73 -31t-74 31zM373 866q14 14 14 34t-13.5 34t-33.5 14t-34 -14t-14 -34t14 -34t34 -14q19 0 33 14z" />
    <glyph glyph-name="AE" unicode="&#xc6;" horiz-adv-x="903" 
d="M550 294v-170h293v-124h-424v141h-219l-52 -141h-140l260 700h570v-124h-288v-159h263v-123h-263zM362 576l-116 -311h173v311h-57z" />
    <glyph glyph-name="Ccedilla" unicode="&#xc7;" horiz-adv-x="768" 
d="M716 176q-43 -80 -119.5 -130.5t-168.5 -57.5l-22 -52q14 10 36 10q28 0 47.5 -19.5t19.5 -50.5q0 -38 -32 -61t-79 -23q-34 0 -63 8.5t-46 23.5l25 50q38 -30 81 -30q22 0 37 9t15 25q0 27 -29 27q-20 0 -33 -15l-45 26l27 72q-91 8 -166.5 58t-119 130t-43.5 172
q0 98 48.5 181t131.5 131.5t181 48.5q100 0 185 -51.5t131 -136.5l-115 -61q-30 53 -84 85.5t-117 32.5q-62 0 -115.5 -31t-84.5 -84t-31 -115t31 -115t84.5 -84t115.5 -31q65 0 118.5 33t83.5 88z" />
    <glyph glyph-name="Egrave" unicode="&#xc8;" horiz-adv-x="536" 
d="M183 294v-170h294v-124h-424v700h419v-124h-289v-159h264v-123h-264zM51 982h132l135 -144h-127z" />
    <glyph glyph-name="Eacute" unicode="&#xc9;" horiz-adv-x="536" 
d="M183 294v-170h294v-124h-424v700h419v-124h-289v-159h264v-123h-264zM227 830l135 144h132l-140 -144h-127z" />
    <glyph glyph-name="Ecircumflex" unicode="&#xca;" horiz-adv-x="536" 
d="M183 294v-170h294v-124h-424v700h419v-124h-289v-159h264v-123h-264zM422 827h-78l-74 90l-71 -90h-76l92 144h111z" />
    <glyph glyph-name="Edieresis" unicode="&#xcb;" horiz-adv-x="536" 
d="M183 294v-170h294v-124h-424v700h419v-124h-289v-159h264v-123h-264zM212 848q-19 -19 -47 -19t-47 19t-19 47t19 47t47 19t47 -19t19 -47t-19 -47zM423.5 848q-19.5 -19 -47.5 -19q-27 0 -46.5 19t-19.5 47t19.5 47t46.5 19q28 0 47.5 -19t19.5 -47t-19.5 -47z" />
    <glyph glyph-name="Igrave" unicode="&#xcc;" horiz-adv-x="272" 
d="M56 0v700h130v-700h-130zM-95 985h132l135 -144h-127z" />
    <glyph glyph-name="Iacute" unicode="&#xcd;" horiz-adv-x="272" 
d="M56 0v700h130v-700h-130zM82 833l135 144h132l-140 -144h-127z" />
    <glyph glyph-name="Icircumflex" unicode="&#xce;" horiz-adv-x="272" 
d="M56 0v700h130v-700h-130zM276 830h-78l-74 90l-71 -90h-76l92 144h111z" />
    <glyph glyph-name="Idieresis" unicode="&#xcf;" horiz-adv-x="272" 
d="M56 0v700h130v-700h-130zM67 851q-19 -19 -47 -19t-47 19t-19 47t19 47t47 19t47 -19t19 -47t-19 -47zM278.5 851q-19.5 -19 -47.5 -19q-27 0 -46.5 19t-19.5 47t19.5 47t46.5 19q28 0 47.5 -19t19.5 -47t-19.5 -47z" />
    <glyph glyph-name="Eth" unicode="&#xd0;" horiz-adv-x="760" 
d="M513.5 653.5q82.5 -46.5 130.5 -127t48 -178.5t-48 -177.5t-130.5 -125t-180.5 -45.5h-277v289h-66v122h66v289h277q98 0 180.5 -46.5zM333 124q63 0 115.5 30t83 81.5t30.5 113.5t-30.5 114.5t-83 82.5t-115.5 30h-147v-165h155v-122h-155v-165h147z" />
    <glyph glyph-name="Ntilde" unicode="&#xd1;" horiz-adv-x="688" 
d="M471 260v440h131v-700h-111l-305 474v-474h-130v700h130v-1l1 1zM342 851.5q-16 10.5 -34 30.5q-13 15 -21.5 21.5t-19.5 6.5q-17 0 -27.5 -16t-10.5 -47h-65q0 65 27.5 99.5t79.5 34.5q25 0 40 -10t35 -31q12 -14 21.5 -21t20.5 -7q17 0 27 16t10 47h65
q0 -65 -27.5 -99.5t-79.5 -34.5q-25 0 -41 10.5z" />
    <glyph glyph-name="Ograve" unicode="&#xd2;" horiz-adv-x="827" 
d="M218 35.5q-83 48.5 -131.5 131.5t-48.5 181t48.5 181t131.5 131.5t181 48.5t181 -48.5t131.5 -131.5t48.5 -181t-48.5 -181t-131.5 -131.5t-181 -48.5t-181 48.5zM514 149q53 31 84 84t31 115t-31 115t-84 84t-115 31t-115.5 -31t-84.5 -84t-31 -115t31 -115t84.5 -84
t115.5 -31t115 31zM181 994h132l135 -144h-127z" />
    <glyph glyph-name="Oacute" unicode="&#xd3;" horiz-adv-x="827" 
d="M218 35.5q-83 48.5 -131.5 131.5t-48.5 181t48.5 181t131.5 131.5t181 48.5t181 -48.5t131.5 -131.5t48.5 -181t-48.5 -181t-131.5 -131.5t-181 -48.5t-181 48.5zM514 149q53 31 84 84t31 115t-31 115t-84 84t-115 31t-115.5 -31t-84.5 -84t-31 -115t31 -115t84.5 -84
t115.5 -31t115 31zM357 842l135 144h132l-140 -144h-127z" />
    <glyph glyph-name="Ocircumflex" unicode="&#xd4;" horiz-adv-x="827" 
d="M218 35.5q-83 48.5 -131.5 131.5t-48.5 181t48.5 181t131.5 131.5t181 48.5t181 -48.5t131.5 -131.5t48.5 -181t-48.5 -181t-131.5 -131.5t-181 -48.5t-181 48.5zM514 149q53 31 84 84t31 115t-31 115t-84 84t-115 31t-115.5 -31t-84.5 -84t-31 -115t31 -115t84.5 -84
t115.5 -31t115 31zM552 839h-78l-74 90l-71 -90h-76l92 144h111z" />
    <glyph glyph-name="Otilde" unicode="&#xd5;" horiz-adv-x="827" 
d="M218 35.5q-83 48.5 -131.5 131.5t-48.5 181t48.5 181t131.5 131.5t181 48.5t181 -48.5t131.5 -131.5t48.5 -181t-48.5 -181t-131.5 -131.5t-181 -48.5t-181 48.5zM514 149q53 31 84 84t31 115t-31 115t-84 84t-115 31t-115.5 -31t-84.5 -84t-31 -115t31 -115t84.5 -84
t115.5 -31t115 31zM406 860.5q-16 10.5 -34 30.5q-13 15 -21.5 21.5t-19.5 6.5q-17 0 -27.5 -16t-10.5 -47h-65q0 65 27.5 99.5t79.5 34.5q25 0 40 -10t35 -31q12 -14 21.5 -21t20.5 -7q17 0 27 16t10 47h65q0 -65 -27.5 -99.5t-79.5 -34.5q-25 0 -41 10.5z" />
    <glyph glyph-name="Odieresis" unicode="&#xd6;" horiz-adv-x="827" 
d="M218 35.5q-83 48.5 -131.5 131.5t-48.5 181t48.5 181t131.5 131.5t181 48.5t181 -48.5t131.5 -131.5t48.5 -181t-48.5 -181t-131.5 -131.5t-181 -48.5t-181 48.5zM514 149q53 31 84 84t31 115t-31 115t-84 84t-115 31t-115.5 -31t-84.5 -84t-31 -115t31 -115t84.5 -84
t115.5 -31t115 31zM342 860q-19 -19 -47 -19t-47 19t-19 47t19 47t47 19t47 -19t19 -47t-19 -47zM553.5 860q-19.5 -19 -47.5 -19q-27 0 -46.5 19t-19.5 47t19.5 47t46.5 19q28 0 47.5 -19t19.5 -47t-19.5 -47z" />
    <glyph glyph-name="multiply" unicode="&#xd7;" horiz-adv-x="504" 
d="M307 334l141 -142l-54 -54l-142 142l-141 -142l-55 54l142 142l-142 142l55 54l141 -142l142 142l54 -54z" />
    <glyph glyph-name="Oslash" unicode="&#xd8;" horiz-adv-x="827" 
d="M670 586q43 -48 66.5 -109.5t23.5 -128.5q0 -98 -48.5 -181t-131.5 -131.5t-181 -48.5q-57 0 -110 17t-98 49l-59 -66l-60 57l58 64q-44 49 -68 110.5t-24 129.5q0 98 48.5 181t131.5 131.5t181 48.5q58 0 111.5 -17.5t98.5 -50.5l58 65l60 -56zM218 206l303 337
q-57 35 -122 35q-62 0 -115.5 -31t-84.5 -84t-31 -115q0 -79 50 -142zM514 149q53 31 84 84t31 115q0 77 -47 140l-303 -337q55 -33 120 -33q62 0 115 31z" />
    <glyph glyph-name="Ugrave" unicode="&#xd9;" horiz-adv-x="665" 
d="M456 700h130v-464q0 -73 -35 -129.5t-96 -88t-138 -31.5t-138 31.5t-95.5 88t-34.5 129.5v464h131v-464q0 -54 39 -86.5t98 -32.5q63 0 101 32t38 87v464zM99 985h132l135 -144h-127z" />
    <glyph glyph-name="Uacute" unicode="&#xda;" horiz-adv-x="665" 
d="M456 700h130v-464q0 -73 -35 -129.5t-96 -88t-138 -31.5t-138 31.5t-95.5 88t-34.5 129.5v464h131v-464q0 -54 39 -86.5t98 -32.5q63 0 101 32t38 87v464zM276 833l135 144h132l-140 -144h-127z" />
    <glyph glyph-name="Ucircumflex" unicode="&#xdb;" horiz-adv-x="665" 
d="M456 700h130v-464q0 -73 -35 -129.5t-96 -88t-138 -31.5t-138 31.5t-95.5 88t-34.5 129.5v464h131v-464q0 -54 39 -86.5t98 -32.5q63 0 101 32t38 87v464zM470 830h-78l-74 90l-71 -90h-76l92 144h111z" />
    <glyph glyph-name="Udieresis" unicode="&#xdc;" horiz-adv-x="665" 
d="M456 700h130v-464q0 -73 -35 -129.5t-96 -88t-138 -31.5t-138 31.5t-95.5 88t-34.5 129.5v464h131v-464q0 -54 39 -86.5t98 -32.5q63 0 101 32t38 87v464zM261 851q-19 -19 -47 -19t-47 19t-19 47t19 47t47 19t47 -19t19 -47t-19 -47zM472.5 851q-19.5 -19 -47.5 -19
q-27 0 -46.5 19t-19.5 47t19.5 47t46.5 19q28 0 47.5 -19t19.5 -47t-19.5 -47z" />
    <glyph glyph-name="Yacute" unicode="&#xdd;" horiz-adv-x="673" 
d="M322 401l169 299h148l-252 -450v-250h-131v252l-252 448h148zM284 833l135 144h132l-140 -144h-127z" />
    <glyph glyph-name="Thorn" unicode="&#xde;" horiz-adv-x="599" 
d="M310 589q62 0 115 -30.5t83.5 -83.5t30.5 -115t-30.5 -115t-83.5 -83.5t-115 -30.5h-124v-131h-130v700h130v-111h124zM310 255q43 0 74 31t31 74t-30.5 73.5t-74.5 30.5h-124v-209h124z" />
    <glyph glyph-name="germandbls" unicode="&#xdf;" horiz-adv-x="557" 
d="M439.5 55q-58.5 -54 -156.5 -55h-59v124h59q47 1 75 23t28 59q0 41 -31.5 66t-83.5 25h-47v118h47h4q34 1 54 23.5t20 59.5q0 38 -24 61.5t-63 23.5q-42 0 -68 -24t-27 -64v-495h-130v495q4 104 61 154.5t170 50.5q57 0 100.5 -25.5t67.5 -71.5t24 -105q0 -75 -39 -129
q37 -29 57 -73t20 -96q0 -91 -58.5 -145z" />
    <glyph glyph-name="agrave" unicode="&#xe0;" horiz-adv-x="617" 
d="M425 500h124v-500h-124v52q-56 -66 -145 -66q-75 0 -132 34t-88 94t-31 135t31 135t88 94.5t132 34.5q87 0 145 -66v53zM384.5 144q40.5 42 40.5 106t-40 105t-102 41q-58 0 -95 -43t-37 -104q0 -62 37 -104.5t95 -42.5q61 0 101.5 42zM91 785h132l135 -144h-127z" />
    <glyph glyph-name="aacute" unicode="&#xe1;" horiz-adv-x="617" 
d="M425 500h124v-500h-124v52q-56 -66 -145 -66q-75 0 -132 34t-88 94t-31 135t31 135t88 94.5t132 34.5q87 0 145 -66v53zM384.5 144q40.5 42 40.5 106t-40 105t-102 41q-58 0 -95 -43t-37 -104q0 -62 37 -104.5t95 -42.5q61 0 101.5 42zM267 633l135 144h132l-140 -144
h-127z" />
    <glyph glyph-name="acircumflex" unicode="&#xe2;" horiz-adv-x="617" 
d="M425 500h124v-500h-124v52q-56 -66 -145 -66q-75 0 -132 34t-88 94t-31 135t31 135t88 94.5t132 34.5q87 0 145 -66v53zM384.5 144q40.5 42 40.5 106t-40 105t-102 41q-58 0 -95 -43t-37 -104q0 -62 37 -104.5t95 -42.5q61 0 101.5 42zM462 630h-78l-74 90l-71 -90h-76
l92 144h111z" />
    <glyph glyph-name="atilde" unicode="&#xe3;" horiz-adv-x="617" 
d="M425 500h124v-500h-124v52q-56 -66 -145 -66q-75 0 -132 34t-88 94t-31 135t31 135t88 94.5t132 34.5q87 0 145 -66v53zM384.5 144q40.5 42 40.5 106t-40 105t-102 41q-58 0 -95 -43t-37 -104q0 -62 37 -104.5t95 -42.5q61 0 101.5 42zM316 651.5q-16 10.5 -34 30.5
q-13 15 -21.5 21.5t-19.5 6.5q-17 0 -27.5 -16t-10.5 -47h-65q0 65 27.5 99.5t79.5 34.5q25 0 40 -10t35 -31q12 -14 21.5 -21t20.5 -7q17 0 27 16t10 47h65q0 -65 -27.5 -99.5t-79.5 -34.5q-25 0 -41 10.5z" />
    <glyph glyph-name="adieresis" unicode="&#xe4;" horiz-adv-x="617" 
d="M425 500h124v-500h-124v52q-56 -66 -145 -66q-75 0 -132 34t-88 94t-31 135t31 135t88 94.5t132 34.5q87 0 145 -66v53zM384.5 144q40.5 42 40.5 106t-40 105t-102 41q-58 0 -95 -43t-37 -104q0 -62 37 -104.5t95 -42.5q61 0 101.5 42zM252 651q-19 -19 -47 -19t-47 19
t-19 47t19 47t47 19t47 -19t19 -47t-19 -47zM463.5 651q-19.5 -19 -47.5 -19q-27 0 -46.5 19t-19.5 47t19.5 47t46.5 19q28 0 47.5 -19t19.5 -47t-19.5 -47z" />
    <glyph glyph-name="aring" unicode="&#xe5;" horiz-adv-x="617" 
d="M425 500h124v-500h-124v52q-56 -66 -145 -66q-75 0 -132 34t-88 94t-31 135t31 135t88 94.5t132 34.5q87 0 145 -66v53zM384.5 144q40.5 42 40.5 106t-40 105t-102 41q-58 0 -95 -43t-37 -104q0 -62 37 -104.5t95 -42.5q61 0 101.5 42zM235 626q-31 31 -31 74t31 74
t74 31t73 -31t30 -74t-30 -74t-73 -31t-74 31zM342 666q14 14 14 34t-13.5 34t-33.5 14t-34 -14t-14 -34t14 -34t34 -14q19 0 33 14z" />
    <glyph glyph-name="ae" unicode="&#xe6;" horiz-adv-x="931" 
d="M869 205h-352q13 -52 48 -82t91 -30q35 0 63 15.5t47 41.5l88 -56q-36 -54 -83.5 -80.5t-116.5 -26.5q-70 0 -120.5 26t-79.5 73q-32 -46 -78 -73t-104 -27q-75 0 -130 34t-84 94t-29 135q0 76 29 135.5t84 94t130 34.5q58 0 104 -27t77 -73q30 47 78.5 73.5t114.5 26.5
q72 0 123 -35t77.5 -95t26.5 -134q0 -24 -4 -44zM769 302q-8 49 -40 76t-85 27q-56 0 -91.5 -30t-37.5 -73h254zM373 143.5q37 41.5 37 106.5t-37 105.5t-98 40.5q-57 0 -90.5 -42.5t-33.5 -104.5q0 -63 33.5 -105t90.5 -42q61 0 98 41.5z" />
    <glyph glyph-name="ccedilla" unicode="&#xe7;" horiz-adv-x="553" 
d="M507 97q-33 -46 -81 -74.5t-104 -34.5l-22 -53q14 10 36 10q28 0 47.5 -19.5t19.5 -50.5q0 -38 -32 -61t-79 -23q-34 0 -63 8.5t-46 23.5l25 50q38 -30 81 -30q22 0 37 9t15 25q0 27 -29 27q-20 0 -33 -15l-45 26l28 73q-65 7 -118.5 44t-84 94t-30.5 123
q0 71 35.5 131.5t96 96t132.5 35.5q64 0 120 -29.5t93 -79.5l-103 -69q-46 55 -110 55q-38 0 -70 -19t-51 -51t-19 -70t19 -70t51 -50.5t70 -18.5q33 0 61 14.5t49 40.5z" />
    <glyph glyph-name="egrave" unicode="&#xe8;" horiz-adv-x="602" 
d="M422.5 477.5q57.5 -35.5 89.5 -95.5t32 -133q0 -24 -4 -44h-387q13 -51 53 -81.5t97 -30.5q37 0 70.5 16t50.5 41l95 -56q-35 -52 -90.5 -79.5t-127.5 -27.5q-80 0 -142 34t-96 94t-34 135q0 74 33.5 134t94 94.5t136.5 34.5q72 0 129.5 -35.5zM427 302q-7 48 -44 75.5
t-92 27.5q-38 0 -69.5 -14t-50.5 -38t-20 -51h276zM76 798h132l135 -144h-127z" />
    <glyph glyph-name="eacute" unicode="&#xe9;" horiz-adv-x="602" 
d="M422.5 477.5q57.5 -35.5 89.5 -95.5t32 -133q0 -24 -4 -44h-387q13 -51 53 -81.5t97 -30.5q37 0 70.5 16t50.5 41l95 -56q-35 -52 -90.5 -79.5t-127.5 -27.5q-80 0 -142 34t-96 94t-34 135q0 74 33.5 134t94 94.5t136.5 34.5q72 0 129.5 -35.5zM427 302q-7 48 -44 75.5
t-92 27.5q-38 0 -69.5 -14t-50.5 -38t-20 -51h276zM253 646l135 144h132l-140 -144h-127z" />
    <glyph glyph-name="ecircumflex" unicode="&#xea;" horiz-adv-x="602" 
d="M422.5 477.5q57.5 -35.5 89.5 -95.5t32 -133q0 -24 -4 -44h-387q13 -51 53 -81.5t97 -30.5q37 0 70.5 16t50.5 41l95 -56q-35 -52 -90.5 -79.5t-127.5 -27.5q-80 0 -142 34t-96 94t-34 135q0 74 33.5 134t94 94.5t136.5 34.5q72 0 129.5 -35.5zM427 302q-7 48 -44 75.5
t-92 27.5q-38 0 -69.5 -14t-50.5 -38t-20 -51h276zM447 643h-78l-74 90l-71 -90h-76l92 144h111z" />
    <glyph glyph-name="edieresis" unicode="&#xeb;" horiz-adv-x="602" 
d="M422.5 477.5q57.5 -35.5 89.5 -95.5t32 -133q0 -24 -4 -44h-387q13 -51 53 -81.5t97 -30.5q37 0 70.5 16t50.5 41l95 -56q-35 -52 -90.5 -79.5t-127.5 -27.5q-80 0 -142 34t-96 94t-34 135q0 74 33.5 134t94 94.5t136.5 34.5q72 0 129.5 -35.5zM427 302q-7 48 -44 75.5
t-92 27.5q-38 0 -69.5 -14t-50.5 -38t-20 -51h276zM238 664q-19 -19 -47 -19t-47 19t-19 47t19 47t47 19t47 -19t19 -47t-19 -47zM449.5 664q-19.5 -19 -47.5 -19q-27 0 -46.5 19t-19.5 47t19.5 47t46.5 19q28 0 47.5 -19t19.5 -47t-19.5 -47z" />
    <glyph glyph-name="igrave" unicode="&#xec;" horiz-adv-x="254" 
d="M50 0v500h123v-500h-123zM-106 785h132l135 -144h-127z" />
    <glyph glyph-name="iacute" unicode="&#xed;" horiz-adv-x="254" 
d="M50 0v500h123v-500h-123zM71 633l135 144h132l-140 -144h-127z" />
    <glyph glyph-name="icircumflex" unicode="&#xee;" horiz-adv-x="254" 
d="M50 0v500h123v-500h-123zM265 630h-78l-74 90l-71 -90h-76l92 144h111z" />
    <glyph glyph-name="idieresis" unicode="&#xef;" horiz-adv-x="254" 
d="M50 0v500h123v-500h-123zM55 651q-19 -19 -47 -19t-47 19t-19 47t19 47t47 19t47 -19t19 -47t-19 -47zM266.5 651q-19.5 -19 -47.5 -19q-27 0 -46.5 19t-19.5 47t19.5 47t46.5 19q28 0 47.5 -19t19.5 -47t-19.5 -47z" />
    <glyph glyph-name="eth" unicode="&#xf0;" horiz-adv-x="622" 
d="M555 247v0q0 -71 -36 -131t-96 -95t-130 -35q-72 0 -132.5 35.5t-96 96t-35.5 131.5t35.5 131.5t96 96t132.5 35.5q50 0 99 -19q-25 47 -49 81l-86 -40l-30 48l80 37q-36 41 -82 81h95q32 -28 53 -51l83 38l30 -48l-74 -34q74 -89 107.5 -178.5t35.5 -169.5v-8v-1v-1z
M362 128.5q32 18.5 51 50.5t19 70t-19 70t-51 51t-70 19t-70 -19t-50.5 -51t-18.5 -70t18.5 -70t50.5 -50.5t70 -18.5t70 18.5z" />
    <glyph glyph-name="ntilde" unicode="&#xf1;" horiz-adv-x="557" 
d="M380 494.5q45 -18.5 77.5 -66.5t32.5 -129v-299h-124v299q0 56 -31.5 80.5t-73.5 24.5q-41 0 -70.5 -29.5t-29.5 -94.5v-280h-124v500h124v-42q27 25 60 40t70 15q44 0 89 -18.5zM279 651.5q-16 10.5 -34 30.5q-13 15 -21.5 21.5t-19.5 6.5q-17 0 -27.5 -16t-10.5 -47
h-65q0 65 27.5 99.5t79.5 34.5q25 0 40 -10t35 -31q12 -14 21.5 -21t20.5 -7q17 0 27 16t10 47h65q0 -65 -27.5 -99.5t-79.5 -34.5q-25 0 -41 10.5z" />
    <glyph glyph-name="ograve" unicode="&#xf2;" horiz-adv-x="615" 
d="M160.5 21.5q-60.5 35.5 -96 96t-35.5 131.5t35.5 131.5t96 96t132.5 35.5q71 0 131 -35.5t95.5 -96t35.5 -131.5t-35.5 -131.5t-95.5 -96t-131 -35.5q-72 0 -132.5 35.5zM362 128.5q32 18.5 51 50.5t19 70t-19 70t-51 51t-70 19t-70 -19t-50.5 -51t-18.5 -70t18.5 -70
t50.5 -50.5t70 -18.5t70 18.5zM75 797h132l135 -144h-127z" />
    <glyph glyph-name="oacute" unicode="&#xf3;" horiz-adv-x="615" 
d="M160.5 21.5q-60.5 35.5 -96 96t-35.5 131.5t35.5 131.5t96 96t132.5 35.5q71 0 131 -35.5t95.5 -96t35.5 -131.5t-35.5 -131.5t-95.5 -96t-131 -35.5q-72 0 -132.5 35.5zM362 128.5q32 18.5 51 50.5t19 70t-19 70t-51 51t-70 19t-70 -19t-50.5 -51t-18.5 -70t18.5 -70
t50.5 -50.5t70 -18.5t70 18.5zM251 645l135 144h132l-140 -144h-127z" />
    <glyph glyph-name="ocircumflex" unicode="&#xf4;" horiz-adv-x="615" 
d="M160.5 21.5q-60.5 35.5 -96 96t-35.5 131.5t35.5 131.5t96 96t132.5 35.5q71 0 131 -35.5t95.5 -96t35.5 -131.5t-35.5 -131.5t-95.5 -96t-131 -35.5q-72 0 -132.5 35.5zM362 128.5q32 18.5 51 50.5t19 70t-19 70t-51 51t-70 19t-70 -19t-50.5 -51t-18.5 -70t18.5 -70
t50.5 -50.5t70 -18.5t70 18.5zM446 642h-78l-74 90l-71 -90h-76l92 144h111z" />
    <glyph glyph-name="otilde" unicode="&#xf5;" horiz-adv-x="615" 
d="M160.5 21.5q-60.5 35.5 -96 96t-35.5 131.5t35.5 131.5t96 96t132.5 35.5q71 0 131 -35.5t95.5 -96t35.5 -131.5t-35.5 -131.5t-95.5 -96t-131 -35.5q-72 0 -132.5 35.5zM362 128.5q32 18.5 51 50.5t19 70t-19 70t-51 51t-70 19t-70 -19t-50.5 -51t-18.5 -70t18.5 -70
t50.5 -50.5t70 -18.5t70 18.5zM300 663.5q-16 10.5 -34 30.5q-13 15 -21.5 21.5t-19.5 6.5q-17 0 -27.5 -16t-10.5 -47h-65q0 65 27.5 99.5t79.5 34.5q25 0 40 -10t35 -31q12 -14 21.5 -21t20.5 -7q17 0 27 16t10 47h65q0 -65 -27.5 -99.5t-79.5 -34.5q-25 0 -41 10.5z" />
    <glyph glyph-name="odieresis" unicode="&#xf6;" horiz-adv-x="615" 
d="M160.5 21.5q-60.5 35.5 -96 96t-35.5 131.5t35.5 131.5t96 96t132.5 35.5q71 0 131 -35.5t95.5 -96t35.5 -131.5t-35.5 -131.5t-95.5 -96t-131 -35.5q-72 0 -132.5 35.5zM362 128.5q32 18.5 51 50.5t19 70t-19 70t-51 51t-70 19t-70 -19t-50.5 -51t-18.5 -70t18.5 -70
t50.5 -50.5t70 -18.5t70 18.5zM236 663q-19 -19 -47 -19t-47 19t-19 47t19 47t47 19t47 -19t19 -47t-19 -47zM447.5 663q-19.5 -19 -47.5 -19q-27 0 -46.5 19t-19.5 47t19.5 47t46.5 19q28 0 47.5 -19t19.5 -47t-19.5 -47z" />
    <glyph glyph-name="divide" unicode="&#xf7;" horiz-adv-x="511" 
d="M297.5 474q-17.5 -18 -42.5 -18q-24 0 -41.5 18t-17.5 43q0 24 17 41.5t42 17.5t42.5 -17.5t17.5 -41.5q0 -25 -17.5 -43zM29 376h453v-77h-453v77zM297.5 114q-17.5 -18 -42.5 -18q-24 0 -41.5 18t-17.5 42q0 25 17 42.5t42 17.5q26 0 43 -17t17 -43q0 -24 -17.5 -42z
" />
    <glyph glyph-name="oslash" unicode="&#xf8;" horiz-adv-x="615" 
d="M620 552l-124 -138q59 -72 59 -165q0 -71 -35.5 -131.5t-95.5 -96t-131 -35.5q-79 0 -143 42l-125 -139l-60 57l123 137q-28 34 -43.5 76.5t-15.5 89.5q0 71 35.5 131.5t96 96t132.5 35.5q77 0 142 -43l125 139zM173 177l178 199q-29 13 -59 13q-38 0 -70 -19t-50.5 -51
t-18.5 -70q0 -40 20 -72zM412 320l-178 -198q27 -12 58 -12q38 0 70 18.5t51 50.5t19 70q0 40 -20 71z" />
    <glyph glyph-name="ugrave" unicode="&#xf9;" horiz-adv-x="561" 
d="M373 500h123v-500h-123v42q-27 -25 -60 -40t-70 -15q-44 0 -89.5 18.5t-78 66.5t-32.5 129v299h124v-299q0 -56 31.5 -80.5t73.5 -24.5t71.5 29.5t29.5 94.5v280zM57 785h132l135 -144h-127z" />
    <glyph glyph-name="uacute" unicode="&#xfa;" horiz-adv-x="561" 
d="M373 500h123v-500h-123v42q-27 -25 -60 -40t-70 -15q-44 0 -89.5 18.5t-78 66.5t-32.5 129v299h124v-299q0 -56 31.5 -80.5t73.5 -24.5t71.5 29.5t29.5 94.5v280zM233 633l135 144h132l-140 -144h-127z" />
    <glyph glyph-name="ucircumflex" unicode="&#xfb;" horiz-adv-x="561" 
d="M373 500h123v-500h-123v42q-27 -25 -60 -40t-70 -15q-44 0 -89.5 18.5t-78 66.5t-32.5 129v299h124v-299q0 -56 31.5 -80.5t73.5 -24.5t71.5 29.5t29.5 94.5v280zM428 630h-78l-74 90l-71 -90h-76l92 144h111z" />
    <glyph glyph-name="udieresis" unicode="&#xfc;" horiz-adv-x="561" 
d="M373 500h123v-500h-123v42q-27 -25 -60 -40t-70 -15q-44 0 -89.5 18.5t-78 66.5t-32.5 129v299h124v-299q0 -56 31.5 -80.5t73.5 -24.5t71.5 29.5t29.5 94.5v280zM218 651q-19 -19 -47 -19t-47 19t-19 47t19 47t47 19t47 -19t19 -47t-19 -47zM429.5 651
q-19.5 -19 -47.5 -19q-27 0 -46.5 19t-19.5 47t19.5 47t46.5 19q28 0 47.5 -19t19.5 -47t-19.5 -47z" />
    <glyph glyph-name="yacute" unicode="&#xfd;" horiz-adv-x="562" 
d="M397 500h130l-175 -501q-39 -103 -107.5 -154.5t-161.5 -44.5v120q6 -1 18 -1q80 0 125 97l-220 484h133l147 -318zM237 633l135 144h132l-140 -144h-127z" />
    <glyph glyph-name="thorn" unicode="&#xfe;" horiz-adv-x="615" 
d="M438 479q57 -34 87.5 -94t30.5 -135t-30.5 -135t-87.5 -94.5t-132 -34.5q-88 0 -145 65v-251h-124v900h124v-252q57 65 145 65q75 0 132 -34zM397.5 146q37.5 43 37.5 104q0 62 -37.5 105t-95.5 43q-61 0 -101 -42.5t-40 -106.5t39.5 -105t101.5 -41q58 0 95.5 43z" />
    <glyph glyph-name="ydieresis" unicode="&#xff;" horiz-adv-x="562" 
d="M397 500h130l-175 -501q-39 -103 -107.5 -154.5t-161.5 -44.5v120q6 -1 18 -1q80 0 125 97l-220 484h133l147 -318zM222 651q-19 -19 -47 -19t-47 19t-19 47t19 47t47 19t47 -19t19 -47t-19 -47zM433.5 651q-19.5 -19 -47.5 -19q-27 0 -46.5 19t-19.5 47t19.5 47t46.5 19
q28 0 47.5 -19t19.5 -47t-19.5 -47z" />
    <glyph glyph-name="Amacron" unicode="&#x100;" horiz-adv-x="706" 
d="M668 0h-139l-52 141h-277l-52 -141h-140l260 700h140zM339 513l-93 -248h185zM515 827h-363v71h363v-71z" />
    <glyph glyph-name="amacron" unicode="&#x101;" horiz-adv-x="617" 
d="M425 500h124v-500h-124v52q-56 -66 -145 -66q-75 0 -132 34t-88 94t-31 135t31 135t88 94.5t132 34.5q87 0 145 -66v53zM384.5 144q40.5 42 40.5 106t-40 105t-102 41q-58 0 -95 -43t-37 -104q0 -62 37 -104.5t95 -42.5q61 0 101.5 42zM485 627h-363v71h363v-71z" />
    <glyph glyph-name="Abreve" unicode="&#x102;" horiz-adv-x="706" 
d="M668 0h-139l-52 141h-277l-52 -141h-140l260 700h140zM339 513l-93 -248h185zM513 916q-31 -42 -76 -65t-99 -23q-53 0 -98 23t-78 65l55 46q45 -63 121 -63q75 0 121 63z" />
    <glyph glyph-name="abreve" unicode="&#x103;" horiz-adv-x="617" 
d="M425 500h124v-500h-124v52q-56 -66 -145 -66q-75 0 -132 34t-88 94t-31 135t31 135t88 94.5t132 34.5q87 0 145 -66v53zM384.5 144q40.5 42 40.5 106t-40 105t-102 41q-58 0 -95 -43t-37 -104q0 -62 37 -104.5t95 -42.5q61 0 101.5 42zM483 716q-31 -42 -76 -65t-99 -23
q-53 0 -98 23t-78 65l55 46q45 -63 121 -63q75 0 121 63z" />
    <glyph glyph-name="Aogonek" unicode="&#x104;" horiz-adv-x="706" 
d="M120 0q-69 -35 -69 -90q0 -22 10.5 -32t26.5 -10q31 0 44 35l50 -31q-29 -57 -94 -57q-43 0 -71 22.5t-28 67.5q0 55 45 95h-26l260 700h140l260 -700h-139l-52 141h-277l-52 -141h-28zM431 265l-92 248l-93 -248h185z" />
    <glyph glyph-name="aogonek" unicode="&#x105;" horiz-adv-x="617" 
d="M593 -128q-29 -57 -94 -57q-43 0 -71 22.5t-28 67.5q0 55 45 95h-20v52q-56 -66 -145 -66q-75 0 -132 34t-88 94t-31 135t31 135t88 94.5t132 34.5q87 0 145 -66v53h124v-500h-18q-69 -35 -69 -90q0 -22 10.5 -32t26.5 -10q31 0 44 35zM384.5 144q40.5 42 40.5 106
t-40 105t-102 41q-58 0 -95 -43t-37 -104q0 -62 37 -104.5t95 -42.5q61 0 101.5 42z" />
    <glyph glyph-name="Cacute" unicode="&#x106;" horiz-adv-x="768" 
d="M86.5 529q48.5 83 131.5 131.5t181 48.5q100 0 185 -51.5t131 -136.5l-115 -61q-30 53 -84 85.5t-117 32.5q-62 0 -115.5 -31t-84.5 -84t-31 -115t31 -115t84.5 -84t115.5 -31q65 0 118.5 33t83.5 88l115 -63q-46 -86 -131 -137.5t-186 -51.5q-98 0 -181 48.5
t-131.5 131.5t-48.5 181t48.5 181zM357 842l135 144h132l-140 -144h-127z" />
    <glyph glyph-name="cacute" unicode="&#x107;" horiz-adv-x="553" 
d="M507 97q-37 -51 -93 -81t-121 -30q-72 0 -132.5 35.5t-96 96t-35.5 131.5t35.5 131.5t96 96t132.5 35.5q64 0 120 -29.5t93 -79.5l-103 -69q-46 55 -110 55q-38 0 -70 -19t-51 -51t-19 -70t19 -70t51 -50.5t70 -18.5q33 0 61 14.5t49 40.5zM251 645l135 144h132
l-140 -144h-127z" />
    <glyph glyph-name="Cdotaccent" unicode="&#x10a;" horiz-adv-x="768" 
d="M86.5 529q48.5 83 131.5 131.5t181 48.5q100 0 185 -51.5t131 -136.5l-115 -61q-30 53 -84 85.5t-117 32.5q-62 0 -115.5 -31t-84.5 -84t-31 -115t31 -115t84.5 -84t115.5 -31q65 0 118.5 33t83.5 88l115 -63q-46 -86 -131 -137.5t-186 -51.5q-98 0 -181 48.5
t-131.5 131.5t-48.5 181t48.5 181zM353.5 844q-19.5 19 -19.5 47t19.5 47.5t46.5 19.5t46.5 -19.5t19.5 -47.5t-19.5 -47t-46.5 -19t-46.5 19z" />
    <glyph glyph-name="cdotaccent" unicode="&#x10b;" horiz-adv-x="553" 
d="M507 97q-37 -51 -93 -81t-121 -30q-72 0 -132.5 35.5t-96 96t-35.5 131.5t35.5 131.5t96 96t132.5 35.5q64 0 120 -29.5t93 -79.5l-103 -69q-46 55 -110 55q-38 0 -70 -19t-51 -51t-19 -70t19 -70t51 -50.5t70 -18.5q33 0 61 14.5t49 40.5zM247.5 647q-19.5 19 -19.5 47
t19.5 47.5t46.5 19.5t46.5 -19.5t19.5 -47.5t-19.5 -47t-46.5 -19t-46.5 19z" />
    <glyph glyph-name="Ccaron" unicode="&#x10c;" horiz-adv-x="768" 
d="M86.5 529q48.5 83 131.5 131.5t181 48.5q100 0 185 -51.5t131 -136.5l-115 -61q-30 53 -84 85.5t-117 32.5q-62 0 -115.5 -31t-84.5 -84t-31 -115t31 -115t84.5 -84t115.5 -31q65 0 118.5 33t83.5 88l115 -63q-46 -86 -131 -137.5t-186 -51.5q-98 0 -181 48.5
t-131.5 131.5t-48.5 181t48.5 181zM452 835h-111l-95 144h76l74 -91l71 91h78z" />
    <glyph glyph-name="ccaron" unicode="&#x10d;" horiz-adv-x="553" 
d="M507 97q-37 -51 -93 -81t-121 -30q-72 0 -132.5 35.5t-96 96t-35.5 131.5t35.5 131.5t96 96t132.5 35.5q64 0 120 -29.5t93 -79.5l-103 -69q-46 55 -110 55q-38 0 -70 -19t-51 -51t-19 -70t19 -70t51 -50.5t70 -18.5q33 0 61 14.5t49 40.5zM346 638h-111l-95 144h76
l74 -91l71 91h78z" />
    <glyph glyph-name="Dcaron" unicode="&#x10e;" horiz-adv-x="760" 
d="M513.5 653.5q82.5 -46.5 130.5 -127t48 -178.5t-48 -177.5t-130.5 -125t-180.5 -45.5h-277v700h277q98 0 180.5 -46.5zM333 124q63 0 115.5 30t83 81.5t30.5 113.5t-30.5 114.5t-83 82.5t-115.5 30h-147v-452h147zM387 826h-111l-95 144h76l74 -91l71 91h78z" />
    <glyph glyph-name="dcaron" unicode="&#x10f;" horiz-adv-x="615" 
d="M425 700h123v-700h-123v52q-56 -66 -145 -66q-75 0 -132 34t-88 94t-31 135t31 135t88 94.5t132 34.5q87 0 145 -66v253zM384.5 144q40.5 42 40.5 106t-40 105t-102 41q-58 0 -95 -43t-37 -104q0 -62 37 -104.5t95 -42.5q61 0 101.5 42zM358 728h-111l-95 144h76l74 -91
l71 91h78z" />
    <glyph glyph-name="Dcroat" unicode="&#x110;" horiz-adv-x="760" 
d="M513.5 653.5q82.5 -46.5 130.5 -127t48 -178.5t-48 -177.5t-130.5 -125t-180.5 -45.5h-277v289h-66v122h66v289h277q98 0 180.5 -46.5zM333 124q63 0 115.5 30t83 81.5t30.5 113.5t-30.5 114.5t-83 82.5t-115.5 30h-147v-165h155v-122h-155v-165h147z" />
    <glyph glyph-name="dcroat" unicode="&#x111;" horiz-adv-x="615" 
d="M660 632v-122h-112v-510h-123v52q-56 -66 -145 -66q-75 0 -132 34t-88 94t-31 135t31 135t88 94.5t132 34.5q11 0 29 -2v121h116v68h123v-68h112zM425 510h-109q66 -12 109 -63v63zM384.5 144q40.5 42 40.5 106t-40 105t-102 41q-58 0 -95 -43t-37 -104q0 -62 37 -104.5
t95 -42.5q61 0 101.5 42z" />
    <glyph glyph-name="Emacron" unicode="&#x112;" horiz-adv-x="536" 
d="M183 294v-170h294v-124h-424v700h419v-124h-289v-159h264v-123h-264zM445 824h-363v71h363v-71z" />
    <glyph glyph-name="emacron" unicode="&#x113;" horiz-adv-x="602" 
d="M422.5 477.5q57.5 -35.5 89.5 -95.5t32 -133q0 -24 -4 -44h-387q13 -51 53 -81.5t97 -30.5q37 0 70.5 16t50.5 41l95 -56q-35 -52 -90.5 -79.5t-127.5 -27.5q-80 0 -142 34t-96 94t-34 135q0 74 33.5 134t94 94.5t136.5 34.5q72 0 129.5 -35.5zM427 302q-7 48 -44 75.5
t-92 27.5q-38 0 -69.5 -14t-50.5 -38t-20 -51h276zM470 640h-363v71h363v-71z" />
    <glyph glyph-name="Edotaccent" unicode="&#x116;" horiz-adv-x="536" 
d="M183 294v-170h294v-124h-424v700h419v-124h-289v-159h264v-123h-264zM223.5 832q-19.5 19 -19.5 47t19.5 47.5t46.5 19.5t46.5 -19.5t19.5 -47.5t-19.5 -47t-46.5 -19t-46.5 19z" />
    <glyph glyph-name="edotaccent" unicode="&#x117;" horiz-adv-x="602" 
d="M422.5 477.5q57.5 -35.5 89.5 -95.5t32 -133q0 -24 -4 -44h-387q13 -51 53 -81.5t97 -30.5q37 0 70.5 16t50.5 41l95 -56q-35 -52 -90.5 -79.5t-127.5 -27.5q-80 0 -142 34t-96 94t-34 135q0 74 33.5 134t94 94.5t136.5 34.5q72 0 129.5 -35.5zM427 302q-7 48 -44 75.5
t-92 27.5q-38 0 -69.5 -14t-50.5 -38t-20 -51h276zM248.5 648q-19.5 19 -19.5 47t19.5 47.5t46.5 19.5t46.5 -19.5t19.5 -47.5t-19.5 -47t-46.5 -19t-46.5 19z" />
    <glyph glyph-name="Eogonek" unicode="&#x118;" horiz-adv-x="536" 
d="M62 -91q0 -22 10.5 -32t26.5 -10q31 0 44 35l50 -31q-29 -57 -94 -57q-43 0 -71 22.5t-28 67.5q0 58 53 102v694h419v-124h-289v-159h264v-123h-264v-170h294v-124h-344q-71 -35 -71 -91z" />
    <glyph glyph-name="eogonek" unicode="&#x119;" horiz-adv-x="602" 
d="M540 205h-387q13 -51 53 -81.5t97 -30.5q37 0 70.5 16t50.5 41l95 -56q-30 -45 -75.5 -71.5t-103.5 -33.5q-64 -33 -64 -87q0 -22 10.5 -32t26.5 -10q31 0 44 35l50 -31q-29 -57 -94 -57q-43 0 -71 22.5t-28 67.5q0 53 43 93q-68 9 -120 44.5t-80 91.5t-28 124
q0 74 33.5 134t94 94.5t136.5 34.5q72 0 129.5 -35.5t89.5 -95.5t32 -133q0 -24 -4 -44zM427 302q-7 48 -44 75.5t-92 27.5q-38 0 -69.5 -14t-50.5 -38t-20 -51h276z" />
    <glyph glyph-name="Ecaron" unicode="&#x11a;" horiz-adv-x="536" 
d="M183 294v-170h294v-124h-424v700h419v-124h-289v-159h264v-123h-264zM323 823h-111l-95 144h76l74 -91l71 91h78z" />
    <glyph glyph-name="ecaron" unicode="&#x11b;" horiz-adv-x="602" 
d="M422.5 477.5q57.5 -35.5 89.5 -95.5t32 -133q0 -24 -4 -44h-387q13 -51 53 -81.5t97 -30.5q37 0 70.5 16t50.5 41l95 -56q-35 -52 -90.5 -79.5t-127.5 -27.5q-80 0 -142 34t-96 94t-34 135q0 74 33.5 134t94 94.5t136.5 34.5q72 0 129.5 -35.5zM427 302q-7 48 -44 75.5
t-92 27.5q-38 0 -69.5 -14t-50.5 -38t-20 -51h276zM348 639h-111l-95 144h76l74 -91l71 91h78z" />
    <glyph glyph-name="Gbreve" unicode="&#x11e;" horiz-adv-x="817" 
d="M374 370h377v-58q0 -88 -47.5 -162.5t-128.5 -118.5t-176 -44q-98 0 -181 48.5t-131.5 131.5t-48.5 181t48.5 181t131.5 131.5t181 48.5q90 0 167.5 -42t126.5 -113l-103 -80q-31 47 -82 75.5t-109 28.5q-62 0 -115.5 -31t-84.5 -84t-31 -115t31 -115t84.5 -84t115.5 -31
q72 0 126.5 35t78.5 93h-230v124zM573 925q-31 -42 -76 -65t-99 -23q-53 0 -98 23t-78 65l55 46q45 -63 121 -63q75 0 121 63z" />
    <glyph glyph-name="gbreve" unicode="&#x11f;" horiz-adv-x="638" 
d="M442 500h123v-475q0 -71 -35.5 -125t-98.5 -83.5t-141 -29.5q-87 0 -157.5 33.5t-99.5 87.5l106 61q14 -29 55.5 -48.5t98.5 -19.5q64 0 106.5 34.5t42.5 89.5v27q-56 -66 -145 -66q-75 0 -132 34t-88 94t-31 135t31 135t88 94.5t132 34.5q87 0 145 -66v53zM401.5 144
q40.5 42 40.5 106t-40 105t-102 41q-58 0 -95 -43t-37 -104q0 -62 37 -104.5t95 -42.5q61 0 101.5 42zM495 716q-31 -42 -76 -65t-99 -23q-53 0 -98 23t-78 65l55 46q45 -63 121 -63q75 0 121 63z" />
    <glyph glyph-name="Gdotaccent" unicode="&#x120;" horiz-adv-x="817" 
d="M374 370h377v-58q0 -88 -47.5 -162.5t-128.5 -118.5t-176 -44q-98 0 -181 48.5t-131.5 131.5t-48.5 181t48.5 181t131.5 131.5t181 48.5q90 0 167.5 -42t126.5 -113l-103 -80q-31 47 -82 75.5t-109 28.5q-62 0 -115.5 -31t-84.5 -84t-31 -115t31 -115t84.5 -84t115.5 -31
q72 0 126.5 35t78.5 93h-230v124zM353.5 844q-19.5 19 -19.5 47t19.5 47.5t46.5 19.5t46.5 -19.5t19.5 -47.5t-19.5 -47t-46.5 -19t-46.5 19z" />
    <glyph glyph-name="gdotaccent" unicode="&#x121;" horiz-adv-x="638" 
d="M442 500h123v-475q0 -71 -35.5 -125t-98.5 -83.5t-141 -29.5q-87 0 -157.5 33.5t-99.5 87.5l106 61q14 -29 55.5 -48.5t98.5 -19.5q64 0 106.5 34.5t42.5 89.5v27q-56 -66 -145 -66q-75 0 -132 34t-88 94t-31 135t31 135t88 94.5t132 34.5q87 0 145 -66v53zM401.5 144
q40.5 42 40.5 106t-40 105t-102 41q-58 0 -95 -43t-37 -104q0 -62 37 -104.5t95 -42.5q61 0 101.5 42zM276.5 635q-19.5 19 -19.5 47t19.5 47.5t46.5 19.5t46.5 -19.5t19.5 -47.5t-19.5 -47t-46.5 -19t-46.5 19z" />
    <glyph glyph-name="uni0122" unicode="&#x122;" horiz-adv-x="817" 
d="M374 370h377v-58q0 -88 -47.5 -162.5t-128.5 -118.5t-176 -44q-98 0 -181 48.5t-131.5 131.5t-48.5 181t48.5 181t131.5 131.5t181 48.5q90 0 167.5 -42t126.5 -113l-103 -80q-31 47 -82 75.5t-109 28.5q-62 0 -115.5 -31t-84.5 -84t-31 -115t31 -115t84.5 -84t115.5 -31
q72 0 126.5 35t78.5 93h-230v124zM327 -238v140h138v-140l-89 -122l-40 33l39 89h-48z" />
    <glyph glyph-name="uni0123" unicode="&#x123;" horiz-adv-x="638" 
d="M442 500h123v-475q0 -71 -35.5 -125t-98.5 -83.5t-141 -29.5q-87 0 -157.5 33.5t-99.5 87.5l106 61q14 -29 55.5 -48.5t98.5 -19.5q64 0 106.5 34.5t42.5 89.5v27q-56 -66 -145 -66q-75 0 -132 34t-88 94t-31 135t31 135t88 94.5t132 34.5q87 0 145 -66v53zM401.5 144
q40.5 42 40.5 106t-40 105t-102 41q-58 0 -95 -43t-37 -104q0 -62 37 -104.5t95 -42.5q61 0 101.5 42zM198 808l-39 -89h47v-140h-137v140l89 122z" />
    <glyph glyph-name="Hbar" unicode="&#x126;" horiz-adv-x="725" 
d="M640 593h49v-96h-49v-497h-131v297h-323v-297h-130v497h-46v96h46v107h130v-107h323v107h131v-107zM186 420h323v77h-323v-77z" />
    <glyph glyph-name="hbar" unicode="&#x127;" horiz-adv-x="554" 
d="M487 0h-124v296q0 56 -31.5 80.5t-73.5 24.5q-34 0 -61 -19.5t-36 -63.5v-318h-124v503h-101v122h101v75h124v-75h126v-115q44 0 89 -18.5t78 -65.5t33 -127v-299zM161 459q34 31 77 44h-77v-44z" />
    <glyph glyph-name="Imacron" unicode="&#x12a;" horiz-adv-x="272" 
d="M56 0v700h130v-700h-130zM299 827h-363v71h363v-71z" />
    <glyph glyph-name="imacron" unicode="&#x12b;" horiz-adv-x="254" 
d="M50 0v500h123v-500h-123zM288 627h-363v71h363v-71z" />
    <glyph glyph-name="Iogonek" unicode="&#x12e;" horiz-adv-x="272" 
d="M193 -129q-29 -57 -94 -57q-43 0 -71 22.5t-28 67.5q0 60 56 104v692h130v-700h-53q-71 -35 -71 -91q0 -22 10.5 -32t26.5 -10q31 0 44 35z" />
    <glyph glyph-name="iogonek" unicode="&#x12f;" horiz-adv-x="254" 
d="M66.5 635q-19.5 19 -19.5 47t19.5 47.5t46.5 19.5t46.5 -19.5t19.5 -47.5t-19.5 -47t-46.5 -19t-46.5 19zM193 -129q-29 -57 -94 -57q-43 0 -71 22.5t-28 67.5q0 57 50 99v497h123v-500h-40q-71 -35 -71 -91q0 -22 10.5 -32t26.5 -10q31 0 44 35z" />
    <glyph glyph-name="Idotaccent" unicode="&#x130;" horiz-adv-x="272" 
d="M56 0v700h130v-700h-130zM78.5 835q-19.5 19 -19.5 47t19.5 47.5t46.5 19.5t46.5 -19.5t19.5 -47.5t-19.5 -47t-46.5 -19t-46.5 19z" />
    <glyph glyph-name="dotlessi" unicode="&#x131;" horiz-adv-x="254" 
d="M50 0v500h123v-500h-123z" />
    <glyph glyph-name="uni0136" unicode="&#x136;" horiz-adv-x="675" 
d="M641 1l-163 -1l-222 279l-70 -81v-198h-130v700h130v-300l263 300h168l-275 -320zM255 -225v140h138v-140l-89 -122l-40 33l39 89h-48z" />
    <glyph glyph-name="uni0137" unicode="&#x137;" horiz-adv-x="568" 
d="M529 0h-155l-140 186l-73 -79v-107h-124v700h124v-411l188 211h172l-203 -221zM58 -227v140h138v-140l-89 -122l-40 33l39 89h-48z" />
    <glyph glyph-name="Lacute" unicode="&#x139;" horiz-adv-x="528" 
d="M186 700v-576h296v-124h-426v700h130zM78 833l135 144h132l-140 -144h-127z" />
    <glyph glyph-name="lacute" unicode="&#x13a;" horiz-adv-x="278" 
d="M168.5 118q7.5 -7 24.5 -7q12 0 32 3v-114q-37 -6 -69 -6q-58 0 -88.5 30.5t-30.5 108.5v567h124v-559q0 -16 7.5 -23zM60 833l135 144h132l-140 -144h-127z" />
    <glyph glyph-name="uni013B" unicode="&#x13b;" horiz-adv-x="528" 
d="M186 700v-576h296v-124h-426v700h130zM207 -225v140h138v-140l-89 -122l-40 33l39 89h-48z" />
    <glyph glyph-name="uni013C" unicode="&#x13c;" horiz-adv-x="278" 
d="M168.5 118q7.5 -7 24.5 -7q12 0 32 3v-114q-37 -6 -69 -6q-58 0 -88.5 30.5t-30.5 108.5v567h124v-559q0 -16 7.5 -23zM60 -225v140h138v-140l-89 -122l-40 33l39 89h-48z" />
    <glyph glyph-name="Lcaron" unicode="&#x13d;" horiz-adv-x="528" 
d="M186 700v-576h296v-124h-426v700h130zM173 826h-111l-95 144h76l74 -91l71 91h78z" />
    <glyph glyph-name="lcaron" unicode="&#x13e;" horiz-adv-x="278" 
d="M168.5 118q7.5 -7 24.5 -7q12 0 32 3v-114q-37 -6 -69 -6q-58 0 -88.5 30.5t-30.5 108.5v567h124v-559q0 -16 7.5 -23zM155 826h-111l-95 144h76l74 -91l71 91h78z" />
    <glyph glyph-name="Lslash" unicode="&#x141;" horiz-adv-x="528" 
d="M186 336v-212h296v-124h-426v221l-57 -51l-86 84l143 128v318h130v-202l80 71l86 -85z" />
    <glyph glyph-name="lslash" unicode="&#x142;" horiz-adv-x="278" 
d="M168.5 118q7.5 -7 24.5 -7q12 0 32 3v-114q-37 -6 -69 -6q-58 0 -88.5 30.5t-30.5 108.5v117l-71 -63l-86 84l157 140v289h124v-178l72 64l86 -85l-158 -141v-219q0 -16 7.5 -23z" />
    <glyph glyph-name="Nacute" unicode="&#x143;" horiz-adv-x="688" 
d="M471 260v440h131v-700h-111l-305 474v-474h-130v700h130v-1l1 1zM293 833l135 144h132l-140 -144h-127z" />
    <glyph glyph-name="nacute" unicode="&#x144;" horiz-adv-x="557" 
d="M380 494.5q45 -18.5 77.5 -66.5t32.5 -129v-299h-124v299q0 56 -31.5 80.5t-73.5 24.5q-41 0 -70.5 -29.5t-29.5 -94.5v-280h-124v500h124v-42q27 25 60 40t70 15q44 0 89 -18.5zM230 633l135 144h132l-140 -144h-127z" />
    <glyph glyph-name="uni0145" unicode="&#x145;" horiz-adv-x="688" 
d="M471 260v440h131v-700h-111l-305 474v-474h-130v700h130v-1l1 1zM270 -225v140h138v-140l-89 -122l-40 33l39 89h-48z" />
    <glyph glyph-name="uni0146" unicode="&#x146;" horiz-adv-x="557" 
d="M380 494.5q45 -18.5 77.5 -66.5t32.5 -129v-299h-124v299q0 56 -31.5 80.5t-73.5 24.5q-41 0 -70.5 -29.5t-29.5 -94.5v-280h-124v500h124v-42q27 25 60 40t70 15q44 0 89 -18.5zM194 -225v140h138v-140l-89 -122l-40 33l39 89h-48z" />
    <glyph glyph-name="Ncaron" unicode="&#x147;" horiz-adv-x="688" 
d="M471 260v440h131v-700h-111l-305 474v-474h-130v700h130v-1l1 1zM388 826h-111l-95 144h76l74 -91l71 91h78z" />
    <glyph glyph-name="ncaron" unicode="&#x148;" horiz-adv-x="557" 
d="M380 494.5q45 -18.5 77.5 -66.5t32.5 -129v-299h-124v299q0 56 -31.5 80.5t-73.5 24.5q-41 0 -70.5 -29.5t-29.5 -94.5v-280h-124v500h124v-42q27 25 60 40t70 15q44 0 89 -18.5zM325 626h-111l-95 144h76l74 -91l71 91h78z" />
    <glyph glyph-name="Eng" unicode="&#x14a;" horiz-adv-x="688" 
d="M471 700h131v-710q0 -63 -28.5 -108t-79.5 -66.5t-117 -16.5v119q8 -1 22 -1q41 0 60 17.5t19 55.5v30l-292 454v-474h-130v700h130v-1l1 1l284 -440v440z" />
    <glyph glyph-name="eng" unicode="&#x14b;" horiz-adv-x="557" 
d="M380 494.5q45 -18.5 77.5 -66.5t32.5 -129v-320q0 -63 -28.5 -108t-79.5 -66.5t-117 -16.5v119q8 -1 22 -1q41 0 60 17.5t19 55.5v320q0 56 -31.5 80.5t-73.5 24.5q-41 0 -70.5 -29.5t-29.5 -94.5v-280h-124v500h124v-42q27 25 60 40t70 15q44 0 89 -18.5z" />
    <glyph glyph-name="Omacron" unicode="&#x14c;" horiz-adv-x="827" 
d="M218 35.5q-83 48.5 -131.5 131.5t-48.5 181t48.5 181t131.5 131.5t181 48.5t181 -48.5t131.5 -131.5t48.5 -181t-48.5 -181t-131.5 -131.5t-181 -48.5t-181 48.5zM514 149q53 31 84 84t31 115t-31 115t-84 84t-115 31t-115.5 -31t-84.5 -84t-31 -115t31 -115t84.5 -84
t115.5 -31t115 31zM575 836h-363v71h363v-71z" />
    <glyph glyph-name="omacron" unicode="&#x14d;" horiz-adv-x="615" 
d="M160.5 21.5q-60.5 35.5 -96 96t-35.5 131.5t35.5 131.5t96 96t132.5 35.5q71 0 131 -35.5t95.5 -96t35.5 -131.5t-35.5 -131.5t-95.5 -96t-131 -35.5q-72 0 -132.5 35.5zM362 128.5q32 18.5 51 50.5t19 70t-19 70t-51 51t-70 19t-70 -19t-50.5 -51t-18.5 -70t18.5 -70
t50.5 -50.5t70 -18.5t70 18.5zM469 639h-363v71h363v-71z" />
    <glyph glyph-name="Ohungarumlaut" unicode="&#x150;" horiz-adv-x="827" 
d="M218 35.5q-83 48.5 -131.5 131.5t-48.5 181t48.5 181t131.5 131.5t181 48.5t181 -48.5t131.5 -131.5t48.5 -181t-48.5 -181t-131.5 -131.5t-181 -48.5t-181 48.5zM514 149q53 31 84 84t31 115t-31 115t-84 84t-115 31t-115.5 -31t-84.5 -84t-31 -115t31 -115t84.5 -84
t115.5 -31t115 31zM274 845l88 144h99l-115 -144h-72zM423 845l87 144h100l-115 -144h-72z" />
    <glyph glyph-name="ohungarumlaut" unicode="&#x151;" horiz-adv-x="615" 
d="M160.5 21.5q-60.5 35.5 -96 96t-35.5 131.5t35.5 131.5t96 96t132.5 35.5q71 0 131 -35.5t95.5 -96t35.5 -131.5t-35.5 -131.5t-95.5 -96t-131 -35.5q-72 0 -132.5 35.5zM362 128.5q32 18.5 51 50.5t19 70t-19 70t-51 51t-70 19t-70 -19t-50.5 -51t-18.5 -70t18.5 -70
t50.5 -50.5t70 -18.5t70 18.5zM168 648l88 144h99l-115 -144h-72zM317 648l87 144h100l-115 -144h-72z" />
    <glyph glyph-name="OE" unicode="&#x152;" horiz-adv-x="1054" 
d="M701 124h293v-124h-424v56q-85 -69 -201 -69q-97 0 -172.5 48t-117 131t-41.5 182t41.5 182t117 131t172.5 48q116 0 201 -69v60h419v-124h-288v-159h263v-123h-263v-170zM476 148.5q45 30.5 69 83t24 116.5t-24 116.5t-69 83t-107 30.5t-107.5 -30.5t-69.5 -83
t-24 -116.5t24 -116.5t69.5 -83t107.5 -30.5t107 30.5z" />
    <glyph glyph-name="oe" unicode="&#x153;" horiz-adv-x="955" 
d="M894 205h-352q13 -52 48 -82t91 -30q35 0 63 15.5t46 41.5l89 -56q-36 -54 -83.5 -80.5t-117.5 -26.5q-69 0 -119.5 26t-79.5 73q-35 -46 -83.5 -73t-105.5 -27q-76 0 -135.5 34.5t-92.5 94.5t-33 134t33 134.5t92.5 95t135.5 34.5q57 0 105.5 -27t82.5 -73
q29 48 77.5 74t114.5 26q72 0 123.5 -35t78 -95t26.5 -134q0 -14 -4 -44zM793 302q-7 49 -39 76t-86 27q-56 0 -91.5 -30t-36.5 -73h253zM392.5 144q41.5 42 41.5 106t-41 105t-104 41q-39 0 -70.5 -20t-49.5 -53.5t-18 -73.5t18 -74t49.5 -53.5t70.5 -19.5q62 0 103.5 42z
" />
    <glyph glyph-name="Racute" unicode="&#x154;" horiz-adv-x="648" 
d="M450 0l-137 242h-130v-242h-130v700h283q62 0 115 -30.5t83.5 -83.5t30.5 -115q0 -64 -32 -117t-86 -83l153 -271h-150zM183 576v-209h153q43 0 74 30.5t31 73.5q0 44 -30.5 74.5t-74.5 30.5h-153zM247 833l135 144h132l-140 -144h-127z" />
    <glyph glyph-name="racute" unicode="&#x155;" horiz-adv-x="374" 
d="M332 500l-9 -118q-10 3 -22 3q-62 0 -102 -34.5t-40 -95.5v-255h-124v500h124v-91q17 39 58 65t99 26h16zM144 633l135 144h132l-140 -144h-127z" />
    <glyph glyph-name="uni0156" unicode="&#x156;" horiz-adv-x="648" 
d="M450 0l-137 242h-130v-242h-130v700h283q62 0 115 -30.5t83.5 -83.5t30.5 -115q0 -64 -32 -117t-86 -83l153 -271h-150zM183 576v-209h153q43 0 74 30.5t31 73.5q0 44 -30.5 74.5t-74.5 30.5h-153zM239 -225v140h138v-140l-89 -122l-40 33l39 89h-48z" />
    <glyph glyph-name="uni0157" unicode="&#x157;" horiz-adv-x="374" 
d="M332 500l-9 -118q-10 3 -22 3q-62 0 -102 -34.5t-40 -95.5v-255h-124v500h124v-91q17 39 58 65t99 26h16zM28 -225v140h138v-140l-89 -122l-40 33l39 89h-48z" />
    <glyph glyph-name="Rcaron" unicode="&#x158;" horiz-adv-x="648" 
d="M450 0l-137 242h-130v-242h-130v700h283q62 0 115 -30.5t83.5 -83.5t30.5 -115q0 -64 -32 -117t-86 -83l153 -271h-150zM183 576v-209h153q43 0 74 30.5t31 73.5q0 44 -30.5 74.5t-74.5 30.5h-153zM342 826h-111l-95 144h76l74 -91l71 91h78z" />
    <glyph glyph-name="rcaron" unicode="&#x159;" horiz-adv-x="374" 
d="M332 500l-9 -118q-10 3 -22 3q-62 0 -102 -34.5t-40 -95.5v-255h-124v500h124v-91q17 39 58 65t99 26h16zM239 626h-111l-95 144h76l74 -91l71 91h78z" />
    <glyph glyph-name="Sacute" unicode="&#x15a;" horiz-adv-x="647" 
d="M131 33q-77 46 -108 124l126 65q44 -107 175 -107q40 0 70.5 13t46.5 32.5t16 40.5q0 25 -18 41.5t-51.5 28.5t-100.5 30q-71 20 -120 43.5t-80.5 63.5t-31.5 101q0 62 34 108.5t91 71t124 24.5q92 0 161.5 -40.5t106.5 -113.5l-128 -64q-42 89 -140 89q-50 0 -81.5 -23
t-31.5 -54q0 -26 15 -40.5t41.5 -24t97.5 -29.5q78 -22 129 -45.5t85.5 -65t34.5 -105.5q0 -63 -35.5 -110.5t-98 -73.5t-139.5 -26q-113 0 -190 46zM262 846l135 144h132l-140 -144h-127z" />
    <glyph glyph-name="sacute" unicode="&#x15b;" horiz-adv-x="519" 
d="M192.5 328.5q23.5 -10.5 74.5 -21.5q58 -12 97 -27t67.5 -47.5t28.5 -87.5q0 -49 -29.5 -85t-79 -54.5t-107.5 -18.5q-78 0 -134.5 30t-83.5 86l102 53q25 -69 116 -69q39 0 67.5 15t28.5 43q0 24 -25.5 35.5t-82.5 25.5q-59 14 -96 28t-64 43.5t-27 78.5q0 48 27 83.5
t72.5 54.5t100.5 19q65 0 117 -27t80 -77l-101 -51q-26 56 -96 56q-35 0 -55.5 -14.5t-20.5 -39.5q0 -21 23.5 -31.5zM204 646l135 144h132l-140 -144h-127z" />
    <glyph glyph-name="Scedilla" unicode="&#x15e;" horiz-adv-x="647" 
d="M563 92.5q-31 -45.5 -86.5 -72.5t-125.5 -32l-22 -52q14 10 36 10q28 0 47.5 -19.5t19.5 -50.5q0 -38 -32 -61t-79 -23q-34 0 -63 8.5t-46 23.5l25 50q38 -30 81 -30q22 0 37 9t15 25q0 27 -29 27q-20 0 -33 -15l-45 26l27 72q-101 7 -169.5 52t-97.5 117l126 65
q44 -107 175 -107q40 0 70.5 13t46.5 32.5t16 40.5q0 25 -18 41.5t-51.5 28.5t-100.5 30q-71 20 -120 43.5t-80.5 63.5t-31.5 101q0 62 34 108.5t91 71t124 24.5q92 0 161.5 -40.5t106.5 -113.5l-128 -64q-42 89 -140 89q-50 0 -81.5 -23t-31.5 -54q0 -26 15 -40.5t41.5 -24
t97.5 -29.5q78 -22 129 -45.5t85.5 -65t34.5 -105.5q0 -59 -31 -104.5z" />
    <glyph glyph-name="scedilla" unicode="&#x15f;" horiz-adv-x="519" 
d="M407 36.5q-53 -41.5 -133 -48.5l-22 -52q14 10 36 10q28 0 47.5 -19.5t19.5 -50.5q0 -38 -32 -61t-79 -23q-34 0 -63 8.5t-46 23.5l25 50q38 -30 81 -30q22 0 37 9t15 25q0 27 -29 27q-20 0 -33 -15l-45 26l27 72q-67 6 -115 35.5t-72 79.5l102 53q25 -69 116 -69
q39 0 67.5 15t28.5 43q0 24 -25.5 35.5t-82.5 25.5q-59 14 -96 28t-64 43.5t-27 78.5q0 48 27 83.5t72.5 54.5t100.5 19q65 0 117 -27t80 -77l-101 -51q-26 56 -96 56q-35 0 -55.5 -14.5t-20.5 -39.5q0 -21 23.5 -31.5t74.5 -21.5q58 -12 97 -27t67.5 -47.5t28.5 -87.5
q0 -67 -53 -108.5z" />
    <glyph glyph-name="Scaron" unicode="&#x160;" horiz-adv-x="647" 
d="M131 33q-77 46 -108 124l126 65q44 -107 175 -107q40 0 70.5 13t46.5 32.5t16 40.5q0 25 -18 41.5t-51.5 28.5t-100.5 30q-71 20 -120 43.5t-80.5 63.5t-31.5 101q0 62 34 108.5t91 71t124 24.5q92 0 161.5 -40.5t106.5 -113.5l-128 -64q-42 89 -140 89q-50 0 -81.5 -23
t-31.5 -54q0 -26 15 -40.5t41.5 -24t97.5 -29.5q78 -22 129 -45.5t85.5 -65t34.5 -105.5q0 -63 -35.5 -110.5t-98 -73.5t-139.5 -26q-113 0 -190 46zM357 839h-111l-95 144h76l74 -91l71 91h78z" />
    <glyph glyph-name="scaron" unicode="&#x161;" horiz-adv-x="519" 
d="M192.5 328.5q23.5 -10.5 74.5 -21.5q58 -12 97 -27t67.5 -47.5t28.5 -87.5q0 -49 -29.5 -85t-79 -54.5t-107.5 -18.5q-78 0 -134.5 30t-83.5 86l102 53q25 -69 116 -69q39 0 67.5 15t28.5 43q0 24 -25.5 35.5t-82.5 25.5q-59 14 -96 28t-64 43.5t-27 78.5q0 48 27 83.5
t72.5 54.5t100.5 19q65 0 117 -27t80 -77l-101 -51q-26 56 -96 56q-35 0 -55.5 -14.5t-20.5 -39.5q0 -21 23.5 -31.5zM299 639h-111l-95 144h76l74 -91l71 91h78z" />
    <glyph glyph-name="uni0162" unicode="&#x162;" horiz-adv-x="570" 
d="M335 0h-36l-21 -51q14 10 36 10q28 0 47.5 -19.5t19.5 -50.5q0 -38 -32 -61t-79 -23q-34 0 -63 8.5t-46 23.5l25 50q38 -30 81 -30q22 0 37 9t15 25q0 27 -29 27q-20 0 -33 -15l-45 26l27 71h-35v576h-191v124h515v-124h-193v-576z" />
    <glyph glyph-name="uni0163" unicode="&#x163;" horiz-adv-x="403" 
d="M331.5 -60.5q19.5 -19.5 19.5 -50.5q0 -38 -32 -61t-79 -23q-34 0 -63 8.5t-46 23.5l25 50q38 -30 81 -30q22 0 37 9t15 25q0 27 -29 27q-20 0 -33 -15l-45 26l27 71q-51 11 -76.5 48.5t-25.5 114.5v226h-94v111h94v123l124 42v-165h111v-111h-111v-218q0 -34 16 -47
t51 -13q21 0 46 3v-114q-47 -5 -77 -5l-19 -46q14 10 36 10q28 0 47.5 -19.5z" />
    <glyph glyph-name="Tcaron" unicode="&#x164;" horiz-adv-x="570" 
d="M528 700v-124h-193v-576h-131v576h-191v124h515zM326 826h-111l-95 144h76l74 -91l71 91h78z" />
    <glyph glyph-name="tcaron" unicode="&#x165;" horiz-adv-x="403" 
d="M247 124q16 -13 51 -13q21 0 46 3v-114q-47 -5 -78 -5q-80 0 -119.5 36.5t-39.5 131.5v226h-94v111h94v123l124 42v-165h111v-111h-111v-218q0 -34 16 -47zM227 765h-111l-95 144h76l74 -91l71 91h78z" />
    <glyph glyph-name="Tbar" unicode="&#x166;" horiz-adv-x="570" 
d="M528 700v-124h-193v-197h108v-122h-108v-257h-131v257h-112v122h112v197h-191v124h515z" />
    <glyph glyph-name="tbar" unicode="&#x167;" horiz-adv-x="403" 
d="M231 243v-72q0 -34 16 -47t51 -13q21 0 46 3v-114q-47 -5 -78 -5q-80 0 -119.5 36.5t-39.5 131.5v80h-108v122h108v24h-94v111h94v123l124 42v-165h111v-111h-111v-24h119v-122h-119z" />
    <glyph glyph-name="Umacron" unicode="&#x16a;" horiz-adv-x="665" 
d="M456 700h130v-464q0 -73 -35 -129.5t-96 -88t-138 -31.5t-138 31.5t-95.5 88t-34.5 129.5v464h131v-464q0 -54 39 -86.5t98 -32.5q63 0 101 32t38 87v464zM493 827h-363v71h363v-71z" />
    <glyph glyph-name="umacron" unicode="&#x16b;" horiz-adv-x="561" 
d="M373 500h123v-500h-123v42q-27 -25 -60 -40t-70 -15q-44 0 -89.5 18.5t-78 66.5t-32.5 129v299h124v-299q0 -56 31.5 -80.5t73.5 -24.5t71.5 29.5t29.5 94.5v280zM451 627h-363v71h363v-71z" />
    <glyph glyph-name="Uring" unicode="&#x16e;" horiz-adv-x="665" 
d="M456 700h130v-464q0 -73 -35 -129.5t-96 -88t-138 -31.5t-138 31.5t-95.5 88t-34.5 129.5v464h131v-464q0 -54 39 -86.5t98 -32.5q63 0 101 32t38 87v464zM244 826q-31 31 -31 74t31 74t74 31t73 -31t30 -74t-30 -74t-73 -31t-74 31zM351 866q14 14 14 34t-13.5 34
t-33.5 14t-34 -14t-14 -34t14 -34t34 -14q19 0 33 14z" />
    <glyph glyph-name="uring" unicode="&#x16f;" horiz-adv-x="561" 
d="M373 500h123v-500h-123v42q-27 -25 -60 -40t-70 -15q-44 0 -89.5 18.5t-78 66.5t-32.5 129v299h124v-299q0 -56 31.5 -80.5t73.5 -24.5t71.5 29.5t29.5 94.5v280zM201 626q-31 31 -31 74t31 74t74 31t73 -31t30 -74t-30 -74t-73 -31t-74 31zM308 666q14 14 14 34
t-13.5 34t-33.5 14t-34 -14t-14 -34t14 -34t34 -14q19 0 33 14z" />
    <glyph glyph-name="Uhungarumlaut" unicode="&#x170;" horiz-adv-x="665" 
d="M456 700h130v-464q0 -73 -35 -129.5t-96 -88t-138 -31.5t-138 31.5t-95.5 88t-34.5 129.5v464h131v-464q0 -54 39 -86.5t98 -32.5q63 0 101 32t38 87v464zM193 836l88 144h99l-115 -144h-72zM342 836l87 144h100l-115 -144h-72z" />
    <glyph glyph-name="uhungarumlaut" unicode="&#x171;" horiz-adv-x="561" 
d="M373 500h123v-500h-123v42q-27 -25 -60 -40t-70 -15q-44 0 -89.5 18.5t-78 66.5t-32.5 129v299h124v-299q0 -56 31.5 -80.5t73.5 -24.5t71.5 29.5t29.5 94.5v280zM150 636l88 144h99l-115 -144h-72zM299 636l87 144h100l-115 -144h-72z" />
    <glyph glyph-name="Uogonek" unicode="&#x172;" horiz-adv-x="665" 
d="M456 700h130v-464q0 -67 -29.5 -120.5t-82 -86.5t-119.5 -40q-60 -33 -60 -85q0 -22 10.5 -32t26.5 -10q31 0 44 35l50 -31q-29 -57 -94 -57q-43 0 -71 22.5t-28 67.5q0 50 41 91q-66 8 -117 41t-79.5 86t-28.5 119v464h131v-464q0 -54 39 -86.5t98 -32.5q63 0 101 32
t38 87v464z" />
    <glyph glyph-name="uogonek" unicode="&#x173;" horiz-adv-x="561" 
d="M373 500h123v-500h-123v42q-43 -41 -95 -51q-52 -34 -52 -81q0 -22 10.5 -32t26.5 -10q31 0 44 35l50 -31q-29 -57 -94 -57q-43 0 -71 22.5t-28 67.5q0 48 36 86q-65 13 -111 62.5t-46 147.5v299h124v-299q0 -56 31.5 -80.5t73.5 -24.5t71.5 29.5t29.5 94.5v280z" />
    <glyph glyph-name="Wcircumflex" unicode="&#x174;" horiz-adv-x="1012" 
d="M703 206l131 494h135l-193 -700h-141l-144 478l-144 -478h-141l-193 700h135l131 -494l144 494h136zM645 830h-78l-74 90l-71 -90h-76l92 144h111z" />
    <glyph glyph-name="wcircumflex" unicode="&#x175;" horiz-adv-x="807" 
d="M542 197l93 303h130l-162 -500h-123l-94 297l-94 -297h-121l-159 500h130l90 -301l88 301h132zM535 630h-78l-74 90l-71 -90h-76l92 144h111z" />
    <glyph glyph-name="Ycircumflex" unicode="&#x176;" horiz-adv-x="673" 
d="M322 401l169 299h148l-252 -450v-250h-131v252l-252 448h148zM478 830h-78l-74 90l-71 -90h-76l92 144h111z" />
    <glyph glyph-name="ycircumflex" unicode="&#x177;" horiz-adv-x="562" 
d="M397 500h130l-175 -501q-39 -103 -107.5 -154.5t-161.5 -44.5v120q6 -1 18 -1q80 0 125 97l-220 484h133l147 -318zM431 630h-78l-74 90l-71 -90h-76l92 144h111z" />
    <glyph glyph-name="Ydieresis" unicode="&#x178;" horiz-adv-x="673" 
d="M322 401l169 299h148l-252 -450v-250h-131v252l-252 448h148zM269 851q-19 -19 -47 -19t-47 19t-19 47t19 47t47 19t47 -19t19 -47t-19 -47zM480.5 851q-19.5 -19 -47.5 -19q-27 0 -46.5 19t-19.5 47t19.5 47t46.5 19q28 0 47.5 -19t19.5 -47t-19.5 -47z" />
    <glyph glyph-name="Zacute" unicode="&#x179;" horiz-adv-x="564" 
d="M501 603l-299 -479h303v-124h-466v97l299 479h-296v124h459v-97zM229 833l135 144h132l-140 -144h-127z" />
    <glyph glyph-name="zacute" unicode="&#x17a;" horiz-adv-x="493" 
d="M423 420l-218 -302h228v-118h-400v80l223 303h-213v117h380v-80zM200 633l135 144h132l-140 -144h-127z" />
    <glyph glyph-name="Zdotaccent" unicode="&#x17b;" horiz-adv-x="564" 
d="M501 603l-299 -479h303v-124h-466v97l299 479h-296v124h459v-97zM224.5 835q-19.5 19 -19.5 47t19.5 47.5t46.5 19.5t46.5 -19.5t19.5 -47.5t-19.5 -47t-46.5 -19t-46.5 19z" />
    <glyph glyph-name="zdotaccent" unicode="&#x17c;" horiz-adv-x="493" 
d="M423 420l-218 -302h228v-118h-400v80l223 303h-213v117h380v-80zM196.5 635q-19.5 19 -19.5 47t19.5 47.5t46.5 19.5t46.5 -19.5t19.5 -47.5t-19.5 -47t-46.5 -19t-46.5 19z" />
    <glyph glyph-name="Zcaron" unicode="&#x17d;" horiz-adv-x="564" 
d="M501 603l-299 -479h303v-124h-466v97l299 479h-296v124h459v-97zM324 826h-111l-95 144h76l74 -91l71 91h78z" />
    <glyph glyph-name="zcaron" unicode="&#x17e;" horiz-adv-x="493" 
d="M423 420l-218 -302h228v-118h-400v80l223 303h-213v117h380v-80zM295 626h-111l-95 144h76l74 -91l71 91h78z" />
    <glyph glyph-name="florin" unicode="&#x192;" horiz-adv-x="453" 
d="M239 240l-89 -401h-141l89 401h-55v108h78l37 169q17 71 71 115.5t126 44.5q77 0 116 -42l-53 -101q-17 22 -47 22q-28 0 -49 -18.5t-28 -50.5l-32 -139h116v-108h-139z" />
    <glyph glyph-name="uni0218" unicode="&#x218;" horiz-adv-x="647" 
d="M131 33q-77 46 -108 124l126 65q44 -107 175 -107q40 0 70.5 13t46.5 32.5t16 40.5q0 25 -18 41.5t-51.5 28.5t-100.5 30q-71 20 -120 43.5t-80.5 63.5t-31.5 101q0 62 34 108.5t91 71t124 24.5q92 0 161.5 -40.5t106.5 -113.5l-128 -64q-42 89 -140 89q-50 0 -81.5 -23
t-31.5 -54q0 -26 15 -40.5t41.5 -24t97.5 -29.5q78 -22 129 -45.5t85.5 -65t34.5 -105.5q0 -63 -35.5 -110.5t-98 -73.5t-139.5 -26q-113 0 -190 46zM250 -238v140h138v-140l-89 -122l-40 33l39 89h-48z" />
    <glyph glyph-name="uni0219" unicode="&#x219;" horiz-adv-x="519" 
d="M192.5 328.5q23.5 -10.5 74.5 -21.5q58 -12 97 -27t67.5 -47.5t28.5 -87.5q0 -49 -29.5 -85t-79 -54.5t-107.5 -18.5q-78 0 -134.5 30t-83.5 86l102 53q25 -69 116 -69q39 0 67.5 15t28.5 43q0 24 -25.5 35.5t-82.5 25.5q-59 14 -96 28t-64 43.5t-27 78.5q0 48 27 83.5
t72.5 54.5t100.5 19q65 0 117 -27t80 -77l-101 -51q-26 56 -96 56q-35 0 -55.5 -14.5t-20.5 -39.5q0 -21 23.5 -31.5zM173 -238v140h138v-140l-89 -122l-40 33l39 89h-48z" />
    <glyph glyph-name="uni021A" unicode="&#x21a;" horiz-adv-x="570" 
d="M528 700v-124h-193v-576h-131v576h-191v124h515zM199 -225v140h138v-140l-89 -122l-40 33l39 89h-48z" />
    <glyph glyph-name="uni021B" unicode="&#x21b;" horiz-adv-x="403" 
d="M247 124q16 -13 51 -13q21 0 46 3v-114q-47 -5 -78 -5q-80 0 -119.5 36.5t-39.5 131.5v226h-94v111h94v123l124 42v-165h111v-111h-111v-218q0 -34 16 -47zM169 -225v140h138v-140l-89 -122l-40 33l39 89h-48z" />
    <glyph glyph-name="uni02BC" unicode="&#x2bc;" 
 />
    <glyph glyph-name="circumflex" unicode="&#x2c6;" horiz-adv-x="298" 
d="M298 556h-77l-74 91l-71 -91h-76l92 144h111z" />
    <glyph glyph-name="caron" unicode="&#x2c7;" horiz-adv-x="298" 
d="M206 626h-111l-95 144h76l74 -91l71 91h77z" />
    <glyph glyph-name="breve" unicode="&#x2d8;" horiz-adv-x="351" 
d="M351 635q-31 -42 -76 -65t-99 -23q-53 0 -98 23t-78 65l55 46q45 -63 121 -63q75 0 121 63z" />
    <glyph glyph-name="dotaccent" unicode="&#x2d9;" horiz-adv-x="170" 
d="M38.5 563q-19.5 19 -19.5 47t19.5 47.5t46.5 19.5t46.5 -19.5t19.5 -47.5t-19.5 -47t-46.5 -19t-46.5 19z" />
    <glyph glyph-name="ring" unicode="&#x2da;" horiz-adv-x="208" 
d="M31 576.5q-31 30.5 -31 73.5t31 74t74 31t73 -30.5t30 -74.5q0 -42 -30 -73t-73 -31t-74 30.5zM138.5 617q13.5 14 13.5 33q0 20 -13.5 34t-33.5 14t-34 -14t-14 -34q0 -19 14 -33t34 -14t33.5 14z" />
    <glyph glyph-name="ogonek" unicode="&#x2db;" horiz-adv-x="193" 
d="M133 0q-71 -35 -71 -91q0 -22 10.5 -32t26.5 -10q31 0 44 35l50 -31q-29 -57 -94 -57q-43 0 -71 22.5t-28 67.5q0 38 23 70t66 56z" />
    <glyph glyph-name="tilde" unicode="&#x2dc;" horiz-adv-x="326" 
d="M178 564.5q-16 10.5 -34 30.5q-13 15 -21.5 21.5t-19.5 6.5q-17 0 -27.5 -16t-10.5 -47h-65q0 65 27.5 99.5t79.5 34.5q25 0 40 -10t35 -31q12 -14 21.5 -21t20.5 -7q17 0 27 16t10 47h65q0 -65 -27.5 -99.5t-79.5 -34.5q-25 0 -41 10.5z" />
    <glyph glyph-name="hungarumlaut" unicode="&#x2dd;" horiz-adv-x="336" 
d="M0 556l88 144h99l-115 -144h-72zM149 556l87 144h100l-115 -144h-72z" />
    <glyph glyph-name="gravecomb" unicode="&#x300;" horiz-adv-x="0" 
d="M-255 778h132l135 -144h-127z" />
    <glyph glyph-name="acutecomb" unicode="&#x301;" horiz-adv-x="0" 
d="M-255 633l135 144h132l-140 -144h-127z" />
    <glyph glyph-name="uni0302" unicode="&#x302;" horiz-adv-x="0" 
d="M1 630h-78l-74 90l-71 -90h-76l92 144h111z" />
    <glyph glyph-name="tildecomb" unicode="&#x303;" horiz-adv-x="0" 
d="M-148 651.5q-16 10.5 -34 30.5q-13 15 -21.5 21.5t-19.5 6.5q-17 0 -27.5 -16t-10.5 -47h-65q0 65 27.5 99.5t79.5 34.5q25 0 40 -10t35 -31q12 -14 21.5 -21t20.5 -7q17 0 27 16t10 47h65q0 -65 -27.5 -99.5t-79.5 -34.5q-25 0 -41 10.5z" />
    <glyph glyph-name="uni0304" unicode="&#x304;" horiz-adv-x="0" 
d="M0 627h-363v71h363v-71z" />
    <glyph glyph-name="uni0306" unicode="&#x306;" horiz-adv-x="0" 
d="M0 716q-31 -42 -76 -65t-99 -23q-53 0 -98 23t-78 65l55 46q45 -63 121 -63q75 0 121 63z" />
    <glyph glyph-name="uni0307" unicode="&#x307;" horiz-adv-x="0" 
d="M-131.5 635q-19.5 19 -19.5 47t19.5 47.5t46.5 19.5t46.5 -19.5t19.5 -47.5t-19.5 -47t-46.5 -19t-46.5 19z" />
    <glyph glyph-name="uni0308" unicode="&#x308;" horiz-adv-x="0" 
d="M-205 651q-19 -19 -47 -19t-47 19t-19 47t19 47t47 19t47 -19t19 -47t-19 -47zM6.5 651q-19.5 -19 -47.5 -19q-27 0 -46.5 19t-19.5 47t19.5 47t46.5 19q28 0 47.5 -19t19.5 -47t-19.5 -47z" />
    <glyph glyph-name="uni030A" unicode="&#x30a;" horiz-adv-x="0" 
d="M-177 626q-31 31 -31 74t31 74t74 31t73 -31t30 -74t-30 -74t-73 -31t-74 31zM-70 666q14 14 14 34t-13.5 34t-33.5 14t-34 -14t-14 -34t14 -34t34 -14q19 0 33 14z" />
    <glyph glyph-name="uni030B" unicode="&#x30b;" horiz-adv-x="0" 
d="M-336 636l88 144h99l-115 -144h-72zM-187 636l87 144h100l-115 -144h-72z" />
    <glyph glyph-name="uni030C" unicode="&#x30c;" horiz-adv-x="0" 
d="M-92 626h-111l-95 144h76l74 -91l71 91h78z" />
    <glyph glyph-name="uni0312" unicode="&#x312;" horiz-adv-x="0" 
d="M-402 808l-39 -89h47v-140h-137v140l89 122z" />
    <glyph glyph-name="uni0326" unicode="&#x326;" horiz-adv-x="0" 
d="M-196 -227v140h138v-140l-89 -122l-40 33l39 89h-48z" />
    <glyph glyph-name="uni0327" unicode="&#x327;" horiz-adv-x="0" 
d="M-174 -186.5q-29 8.5 -46 23.5l25 50q38 -30 81 -30q22 0 37 9t15 25q0 27 -29 27q-20 0 -33 -15l-45 26l31 82h61l-26 -62q14 10 36 10q28 0 47.5 -19.5t19.5 -50.5q0 -38 -32 -61t-79 -23q-34 0 -63 8.5z" />
    <glyph glyph-name="uni0328" unicode="&#x328;" horiz-adv-x="0" 
d="M-60 0q-71 -35 -71 -91q0 -22 10.5 -32t26.5 -10q31 0 44 35l50 -31q-29 -57 -94 -57q-43 0 -71 22.5t-28 67.5q0 38 23 70t66 56z" />
    <glyph glyph-name="uni0335" unicode="&#x335;" horiz-adv-x="0" 
d="M-245 269h-351v122h351v-122z" />
    <glyph glyph-name="uni0337" unicode="&#x337;" horiz-adv-x="0" 
d="M-421 113l-86 84l353 315l86 -85z" />
    <glyph glyph-name="uni0338" unicode="&#x338;" horiz-adv-x="0" 
d="M-611 -102l-60 57l595 662l60 -56z" />
    <glyph glyph-name="tonos" unicode="&#x384;" horiz-adv-x="441" 
d="M194 765h134l-76 -190h-93z" />
    <glyph glyph-name="uni03BC" unicode="&#x3bc;" horiz-adv-x="582" 
d="M187 -184h-123v667h123v-295q0 -91 92 -91q34 0 63 16.5t48 40.5v329h123v-400q0 -55 27 -77l-111 -10q-36 14 -39 66q-26 -29 -64 -47t-77 -18q-33 0 -62 15v-196z" />
    <glyph glyph-name="pi" unicode="&#x3c0;" horiz-adv-x="679" 
d="M565 126q16 -13 51 -13q20 0 45 3v-114q-48 -5 -79 -5q-79 0 -118 36.5t-39 131.5v224h-186v-389h-123v389h-92v111h613v-111h-88v-216q0 -34 16 -47z" />
    <glyph glyph-name="uni0400" unicode="&#x400;" horiz-adv-x="536" 
d="M183 294v-170h294v-124h-424v700h419v-124h-289v-159h264v-123h-264zM51 982h132l135 -144h-127z" />
    <glyph glyph-name="uni0401" unicode="&#x401;" 
 />
    <glyph glyph-name="uni0402" unicode="&#x402;" 
 />
    <glyph glyph-name="uni0403" unicode="&#x403;" 
d="M-6 633l135 144h132l-140 -144h-127z" />
    <glyph glyph-name="uni0404" unicode="&#x404;" 
 />
    <glyph glyph-name="uni0405" unicode="&#x405;" horiz-adv-x="647" 
d="M131 33q-77 46 -108 124l126 65q44 -107 175 -107q40 0 70.5 13t46.5 32.5t16 40.5q0 25 -18 41.5t-51.5 28.5t-100.5 30q-71 20 -120 43.5t-80.5 63.5t-31.5 101q0 62 34 108.5t91 71t124 24.5q92 0 161.5 -40.5t106.5 -113.5l-128 -64q-42 89 -140 89q-50 0 -81.5 -23
t-31.5 -54q0 -26 15 -40.5t41.5 -24t97.5 -29.5q78 -22 129 -45.5t85.5 -65t34.5 -105.5q0 -63 -35.5 -110.5t-98 -73.5t-139.5 -26q-113 0 -190 46z" />
    <glyph glyph-name="uni0406" unicode="&#x406;" horiz-adv-x="272" 
d="M56 0v700h130v-700h-130z" />
    <glyph glyph-name="uni0407" unicode="&#x407;" horiz-adv-x="272" 
d="M56 0v700h130v-700h-130zM67 851q-19 -19 -47 -19t-47 19t-19 47t19 47t47 19t47 -19t19 -47t-19 -47zM278.5 851q-19.5 -19 -47.5 -19q-27 0 -46.5 19t-19.5 47t19.5 47t46.5 19q28 0 47.5 -19t19.5 -47t-19.5 -47z" />
    <glyph glyph-name="uni0408" unicode="&#x408;" horiz-adv-x="573" 
d="M363 700h131v-479q0 -67 -31 -120.5t-87.5 -83.5t-128.5 -30q-79 0 -136.5 33t-90.5 96l107 61q24 -40 51.5 -56.5t73.5 -16.5q53 0 82 29.5t29 87.5v479z" />
    <glyph glyph-name="uni0409" unicode="&#x409;" 
 />
    <glyph glyph-name="uni040A" unicode="&#x40a;" 
 />
    <glyph glyph-name="uni040B" unicode="&#x40b;" 
 />
    <glyph glyph-name="uni040C" unicode="&#x40c;" 
d="M-6 633l135 144h132l-140 -144h-127z" />
    <glyph glyph-name="uni040D" unicode="&#x40d;" 
d="M-6 778h132l135 -144h-127z" />
    <glyph glyph-name="uni040F" unicode="&#x40f;" 
 />
    <glyph glyph-name="uni0410" unicode="&#x410;" horiz-adv-x="706" 
d="M668 0h-139l-52 141h-277l-52 -141h-140l260 700h140zM339 513l-93 -248h185z" />
    <glyph glyph-name="uni0411" unicode="&#x411;" 
 />
    <glyph glyph-name="uni0412" unicode="&#x412;" horiz-adv-x="635" 
d="M556 300.5q20 -42.5 20 -89.5q0 -57 -27.5 -105.5t-74.5 -77t-102 -28.5h-316v700h301q52 0 96 -27t70 -72.5t26 -97.5q0 -36 -12.5 -70t-35.5 -61q35 -29 55 -71.5zM186 576v-157l171 1q28 0 50 22.5t22 55.5t-22 55.5t-50 22.5h-171zM372 125q33 0 56 26t23 61
q0 36 -23 62t-56 26h-186v-175h186z" />
    <glyph glyph-name="uni0413" unicode="&#x413;" 
 />
    <glyph glyph-name="uni0414" unicode="&#x414;" 
 />
    <glyph glyph-name="uni0415" unicode="&#x415;" horiz-adv-x="536" 
d="M183 294v-170h294v-124h-424v700h419v-124h-289v-159h264v-123h-264z" />
    <glyph glyph-name="uni0416" unicode="&#x416;" 
 />
    <glyph glyph-name="uni0417" unicode="&#x417;" 
 />
    <glyph glyph-name="uni0418" unicode="&#x418;" 
 />
    <glyph glyph-name="uni0419" unicode="&#x419;" 
 />
    <glyph glyph-name="uni041A" unicode="&#x41a;" 
 />
    <glyph glyph-name="uni041B" unicode="&#x41b;" 
 />
    <glyph glyph-name="uni041C" unicode="&#x41c;" horiz-adv-x="822" 
d="M606 698v2h131v-700h-131v461l-193 -324h-33l-194 325v-462h-130v700h130v-2l3 2l207 -349l207 349z" />
    <glyph glyph-name="uni041D" unicode="&#x41d;" horiz-adv-x="725" 
d="M509 420v280h131v-700h-131v297h-323v-297h-130v700h130v-280h323z" />
    <glyph glyph-name="uni041E" unicode="&#x41e;" horiz-adv-x="827" 
d="M218 35.5q-83 48.5 -131.5 131.5t-48.5 181t48.5 181t131.5 131.5t181 48.5t181 -48.5t131.5 -131.5t48.5 -181t-48.5 -181t-131.5 -131.5t-181 -48.5t-181 48.5zM514 149q53 31 84 84t31 115t-31 115t-84 84t-115 31t-115.5 -31t-84.5 -84t-31 -115t31 -115t84.5 -84
t115.5 -31t115 31z" />
    <glyph glyph-name="uni041F" unicode="&#x41f;" 
 />
    <glyph glyph-name="uni0420" unicode="&#x420;" horiz-adv-x="599" 
d="M425 669.5q53 -30.5 83.5 -83.5t30.5 -115t-30.5 -114.5t-83.5 -83.5t-115 -31h-124v-242h-130v700h254q62 0 115 -30.5zM310 367q43 0 74 30.5t31 73.5q0 44 -30.5 74.5t-74.5 30.5h-124v-209h124z" />
    <glyph glyph-name="uni0421" unicode="&#x421;" horiz-adv-x="768" 
d="M86.5 529q48.5 83 131.5 131.5t181 48.5q100 0 185 -51.5t131 -136.5l-115 -61q-30 53 -84 85.5t-117 32.5q-62 0 -115.5 -31t-84.5 -84t-31 -115t31 -115t84.5 -84t115.5 -31q65 0 118.5 33t83.5 88l115 -63q-46 -86 -131 -137.5t-186 -51.5q-98 0 -181 48.5
t-131.5 131.5t-48.5 181t48.5 181z" />
    <glyph glyph-name="uni0422" unicode="&#x422;" horiz-adv-x="570" 
d="M528 700v-124h-193v-576h-131v576h-191v124h515z" />
    <glyph glyph-name="uni0423" unicode="&#x423;" 
 />
    <glyph glyph-name="uni0424" unicode="&#x424;" 
 />
    <glyph glyph-name="uni0425" unicode="&#x425;" horiz-adv-x="698" 
d="M424 351l228 -351h-157l-161 251l-162 -251h-156l227 351l-226 349h156l161 -249l160 249h157z" />
    <glyph glyph-name="uni0426" unicode="&#x426;" 
 />
    <glyph glyph-name="uni0427" unicode="&#x427;" 
 />
    <glyph glyph-name="uni0428" unicode="&#x428;" 
 />
    <glyph glyph-name="uni0429" unicode="&#x429;" 
 />
    <glyph glyph-name="uni042A" unicode="&#x42a;" 
 />
    <glyph glyph-name="uni042B" unicode="&#x42b;" 
 />
    <glyph glyph-name="uni042C" unicode="&#x42c;" 
 />
    <glyph glyph-name="uni042D" unicode="&#x42d;" 
 />
    <glyph glyph-name="uni042E" unicode="&#x42e;" 
 />
    <glyph glyph-name="uni042F" unicode="&#x42f;" 
 />
    <glyph glyph-name="uni0430" unicode="&#x430;" horiz-adv-x="617" 
d="M425 500h124v-500h-124v52q-56 -66 -145 -66q-75 0 -132 34t-88 94t-31 135t31 135t88 94.5t132 34.5q87 0 145 -66v53zM384.5 144q40.5 42 40.5 106t-40 105t-102 41q-58 0 -95 -43t-37 -104q0 -62 37 -104.5t95 -42.5q61 0 101.5 42z" />
    <glyph glyph-name="uni0431" unicode="&#x431;" 
 />
    <glyph glyph-name="uni0432" unicode="&#x432;" 
 />
    <glyph glyph-name="uni0433" unicode="&#x433;" 
 />
    <glyph glyph-name="uni0434" unicode="&#x434;" 
 />
    <glyph glyph-name="uni0435" unicode="&#x435;" horiz-adv-x="602" 
d="M422.5 477.5q57.5 -35.5 89.5 -95.5t32 -133q0 -24 -4 -44h-387q13 -51 53 -81.5t97 -30.5q37 0 70.5 16t50.5 41l95 -56q-35 -52 -90.5 -79.5t-127.5 -27.5q-80 0 -142 34t-96 94t-34 135q0 74 33.5 134t94 94.5t136.5 34.5q72 0 129.5 -35.5zM427 302q-7 48 -44 75.5
t-92 27.5q-38 0 -69.5 -14t-50.5 -38t-20 -51h276z" />
    <glyph glyph-name="uni0436" unicode="&#x436;" 
 />
    <glyph glyph-name="uni0437" unicode="&#x437;" 
 />
    <glyph glyph-name="uni0438" unicode="&#x438;" 
 />
    <glyph glyph-name="uni0439" unicode="&#x439;" 
 />
    <glyph glyph-name="uni043A" unicode="&#x43a;" 
 />
    <glyph glyph-name="uni043B" unicode="&#x43b;" 
 />
    <glyph glyph-name="uni043C" unicode="&#x43c;" 
 />
    <glyph glyph-name="uni043D" unicode="&#x43d;" 
 />
    <glyph glyph-name="uni043E" unicode="&#x43e;" horiz-adv-x="615" 
d="M160.5 21.5q-60.5 35.5 -96 96t-35.5 131.5t35.5 131.5t96 96t132.5 35.5q71 0 131 -35.5t95.5 -96t35.5 -131.5t-35.5 -131.5t-95.5 -96t-131 -35.5q-72 0 -132.5 35.5zM362 128.5q32 18.5 51 50.5t19 70t-19 70t-51 51t-70 19t-70 -19t-50.5 -51t-18.5 -70t18.5 -70
t50.5 -50.5t70 -18.5t70 18.5z" />
    <glyph glyph-name="uni043F" unicode="&#x43f;" 
 />
    <glyph glyph-name="uni0440" unicode="&#x440;" horiz-adv-x="615" 
d="M438 479q57 -34 87.5 -94t30.5 -135t-30.5 -135t-87.5 -94.5t-132 -34.5q-88 0 -145 65v-251h-124v700h124v-52q57 65 145 65q75 0 132 -34zM397.5 146q37.5 43 37.5 104q0 62 -37.5 105t-95.5 43q-61 0 -101 -42.5t-40 -106.5t39.5 -105t101.5 -41q58 0 95.5 43z" />
    <glyph glyph-name="uni0441" unicode="&#x441;" horiz-adv-x="553" 
d="M507 97q-37 -51 -93 -81t-121 -30q-72 0 -132.5 35.5t-96 96t-35.5 131.5t35.5 131.5t96 96t132.5 35.5q64 0 120 -29.5t93 -79.5l-103 -69q-46 55 -110 55q-38 0 -70 -19t-51 -51t-19 -70t19 -70t51 -50.5t70 -18.5q33 0 61 14.5t49 40.5z" />
    <glyph glyph-name="uni0442" unicode="&#x442;" 
 />
    <glyph glyph-name="uni0443" unicode="&#x443;" horiz-adv-x="562" 
d="M397 500h130l-175 -501q-39 -103 -107.5 -154.5t-161.5 -44.5v120q6 -1 18 -1q80 0 125 97l-220 484h133l147 -318z" />
    <glyph glyph-name="uni0444" unicode="&#x444;" 
 />
    <glyph glyph-name="uni0445" unicode="&#x445;" horiz-adv-x="565" 
d="M374 500h152l-182 -250l182 -250l-152 -1l-106 146l-107 -146l-152 1l182 250l-182 250h152l107 -146z" />
    <glyph glyph-name="uni0446" unicode="&#x446;" 
 />
    <glyph glyph-name="uni0447" unicode="&#x447;" 
 />
    <glyph glyph-name="uni0448" unicode="&#x448;" 
 />
    <glyph glyph-name="uni0449" unicode="&#x449;" 
 />
    <glyph glyph-name="uni044A" unicode="&#x44a;" 
 />
    <glyph glyph-name="uni044B" unicode="&#x44b;" 
 />
    <glyph glyph-name="uni044C" unicode="&#x44c;" 
 />
    <glyph glyph-name="uni044D" unicode="&#x44d;" 
 />
    <glyph glyph-name="uni044E" unicode="&#x44e;" 
 />
    <glyph glyph-name="uni044F" unicode="&#x44f;" 
 />
    <glyph glyph-name="uni0450" unicode="&#x450;" horiz-adv-x="602" 
d="M422.5 477.5q57.5 -35.5 89.5 -95.5t32 -133q0 -24 -4 -44h-387q13 -51 53 -81.5t97 -30.5q37 0 70.5 16t50.5 41l95 -56q-35 -52 -90.5 -79.5t-127.5 -27.5q-80 0 -142 34t-96 94t-34 135q0 74 33.5 134t94 94.5t136.5 34.5q72 0 129.5 -35.5zM427 302q-7 48 -44 75.5
t-92 27.5q-38 0 -69.5 -14t-50.5 -38t-20 -51h276zM76 798h132l135 -144h-127z" />
    <glyph glyph-name="uni0451" unicode="&#x451;" 
 />
    <glyph glyph-name="uni0452" unicode="&#x452;" 
 />
    <glyph glyph-name="uni0453" unicode="&#x453;" 
d="M-6 633l135 144h132l-140 -144h-127z" />
    <glyph glyph-name="uni0454" unicode="&#x454;" 
 />
    <glyph glyph-name="uni0455" unicode="&#x455;" horiz-adv-x="519" 
d="M192.5 328.5q23.5 -10.5 74.5 -21.5q58 -12 97 -27t67.5 -47.5t28.5 -87.5q0 -49 -29.5 -85t-79 -54.5t-107.5 -18.5q-78 0 -134.5 30t-83.5 86l102 53q25 -69 116 -69q39 0 67.5 15t28.5 43q0 24 -25.5 35.5t-82.5 25.5q-59 14 -96 28t-64 43.5t-27 78.5q0 48 27 83.5
t72.5 54.5t100.5 19q65 0 117 -27t80 -77l-101 -51q-26 56 -96 56q-35 0 -55.5 -14.5t-20.5 -39.5q0 -21 23.5 -31.5z" />
    <glyph glyph-name="uni0456" unicode="&#x456;" horiz-adv-x="254" 
d="M50 0v500h123v-500h-123zM65.5 635q-19.5 19 -19.5 47t19.5 47.5t46.5 19.5t46.5 -19.5t19.5 -47.5t-19.5 -47t-46.5 -19t-46.5 19z" />
    <glyph glyph-name="uni0457" unicode="&#x457;" horiz-adv-x="254" 
d="M50 0v500h123v-500h-123zM55 651q-19 -19 -47 -19t-47 19t-19 47t19 47t47 19t47 -19t19 -47t-19 -47zM266.5 651q-19.5 -19 -47.5 -19q-27 0 -46.5 19t-19.5 47t19.5 47t46.5 19q28 0 47.5 -19t19.5 -47t-19.5 -47z" />
    <glyph glyph-name="uni0458" unicode="&#x458;" horiz-adv-x="285" 
d="M88.5 601.5q-20.5 19.5 -20.5 52.5t20.5 52.5t54.5 19.5t54.5 -19.5t20.5 -52.5t-20.5 -52.5t-54.5 -19.5t-54.5 19.5zM81 500h124v-521q0 -63 -28.5 -108t-79.5 -67t-117 -17v119q8 -1 22 -1q41 0 60 17.5t19 56.5v521z" />
    <glyph glyph-name="uni0459" unicode="&#x459;" 
 />
    <glyph glyph-name="uni045A" unicode="&#x45a;" 
 />
    <glyph glyph-name="uni045B" unicode="&#x45b;" 
 />
    <glyph glyph-name="uni045C" unicode="&#x45c;" 
d="M-6 633l135 144h132l-140 -144h-127z" />
    <glyph glyph-name="uni045F" unicode="&#x45f;" 
 />
    <glyph glyph-name="uni0490" unicode="&#x490;" 
 />
    <glyph glyph-name="uni0491" unicode="&#x491;" 
 />
    <glyph glyph-name="Wgrave" unicode="&#x1e80;" horiz-adv-x="1012" 
d="M703 206l131 494h135l-193 -700h-141l-144 478l-144 -478h-141l-193 700h135l131 -494l144 494h136zM274 985h132l135 -144h-127z" />
    <glyph glyph-name="wgrave" unicode="&#x1e81;" horiz-adv-x="807" 
d="M542 197l93 303h130l-162 -500h-123l-94 297l-94 -297h-121l-159 500h130l90 -301l88 301h132zM164 785h132l135 -144h-127z" />
    <glyph glyph-name="Wacute" unicode="&#x1e82;" horiz-adv-x="1012" 
d="M703 206l131 494h135l-193 -700h-141l-144 478l-144 -478h-141l-193 700h135l131 -494l144 494h136zM451 833l135 144h132l-140 -144h-127z" />
    <glyph glyph-name="wacute" unicode="&#x1e83;" horiz-adv-x="807" 
d="M542 197l93 303h130l-162 -500h-123l-94 297l-94 -297h-121l-159 500h130l90 -301l88 301h132zM341 633l135 144h132l-140 -144h-127z" />
    <glyph glyph-name="Wdieresis" unicode="&#x1e84;" horiz-adv-x="1012" 
d="M703 206l131 494h135l-193 -700h-141l-144 478l-144 -478h-141l-193 700h135l131 -494l144 494h136zM436 851q-19 -19 -47 -19t-47 19t-19 47t19 47t47 19t47 -19t19 -47t-19 -47zM647.5 851q-19.5 -19 -47.5 -19q-27 0 -46.5 19t-19.5 47t19.5 47t46.5 19q28 0 47.5 -19
t19.5 -47t-19.5 -47z" />
    <glyph glyph-name="wdieresis" unicode="&#x1e85;" horiz-adv-x="807" 
d="M542 197l93 303h130l-162 -500h-123l-94 297l-94 -297h-121l-159 500h130l90 -301l88 301h132zM325 651q-19 -19 -47 -19t-47 19t-19 47t19 47t47 19t47 -19t19 -47t-19 -47zM536.5 651q-19.5 -19 -47.5 -19q-27 0 -46.5 19t-19.5 47t19.5 47t46.5 19q28 0 47.5 -19
t19.5 -47t-19.5 -47z" />
    <glyph glyph-name="uni1E9E" unicode="&#x1e9e;" horiz-adv-x="647" 
d="M522.5 56q-69.5 -55 -203.5 -56h-71v124h71q66 0 102.5 23.5t36.5 65.5q-1 40 -44 62t-121 22v118h1l116 88q-7 40 -36.5 61.5t-79.5 21.5q-51 0 -79 -23.5t-29 -67.5v-495h-130v495q4 102 68.5 158.5t177.5 56.5q111 0 177.5 -52t76.5 -147l-132 -110
q80 -20 121.5 -67.5t42.5 -120.5q4 -102 -65.5 -157z" />
    <glyph glyph-name="Ygrave" unicode="&#x1ef2;" horiz-adv-x="673" 
d="M322 401l169 299h148l-252 -450v-250h-131v252l-252 448h148zM108 985h132l135 -144h-127z" />
    <glyph glyph-name="ygrave" unicode="&#x1ef3;" horiz-adv-x="562" 
d="M397 500h130l-175 -501q-39 -103 -107.5 -154.5t-161.5 -44.5v120q6 -1 18 -1q80 0 125 97l-220 484h133l147 -318zM61 785h132l135 -144h-127z" />
    <glyph glyph-name="uni2009" unicode="&#x2009;" horiz-adv-x="395" 
 />
    <glyph glyph-name="endash" unicode="&#x2013;" horiz-adv-x="593" 
d="M563 190h-533v105h533v-105z" />
    <glyph glyph-name="emdash" unicode="&#x2014;" horiz-adv-x="833" 
d="M803 190h-773v105h773v-105z" />
    <glyph glyph-name="quoteleft" unicode="&#x2018;" horiz-adv-x="249" 
d="M145 545q30 -7 39.5 -20.5t9.5 -48.5t-18.5 -53.5t-52.5 -18.5q-33 0 -53 19.5t-20 52.5q0 39 9 63.5t34 60.5l51 68l40 -34z" />
    <glyph glyph-name="quoteright" unicode="&#x2019;" horiz-adv-x="249" 
d="M105 536q-30 7 -39.5 20.5t-9.5 48.5t18.5 53.5t52.5 18.5q33 0 52.5 -19t19.5 -53q0 -39 -9 -63.5t-34 -60.5l-51 -68l-39 33z" />
    <glyph glyph-name="quotesinglbase" unicode="&#x201a;" horiz-adv-x="249" 
d="M105 -9q-30 8 -39.5 21.5t-9.5 48.5t18.5 53.5t52.5 18.5t53 -19.5t19 -54.5q-1 -39 -9.5 -63t-33.5 -59l-51 -68l-39 33z" />
    <glyph glyph-name="quotereversed" unicode="&#x201b;" horiz-adv-x="249" 
d="M184 446l-40 -33l-51 68q-25 36 -34 60.5t-9 63.5q0 33 20 52.5t53 19.5q34 0 52.5 -19t18.5 -53q0 -35 -9.5 -48.5t-39.5 -20.5z" />
    <glyph glyph-name="quotedblleft" unicode="&#x201c;" horiz-adv-x="438" 
d="M151 547q30 -7 39.5 -20.5t9.5 -49.5q0 -34 -18.5 -52.5t-52.5 -18.5t-53.5 20t-19.5 54q1 38 10 63t34 59l50 68l40 -34zM327 547q30 -7 39.5 -20.5t9.5 -49.5q0 -34 -18.5 -52.5t-52.5 -18.5q-33 0 -52.5 19t-19.5 53q0 39 9 64t34 60l50 68l40 -34z" />
    <glyph glyph-name="quotedblright" unicode="&#x201d;" horiz-adv-x="440" 
d="M107 536q-30 7 -39.5 20.5t-9.5 48.5q0 34 18.5 53t52.5 19t53.5 -20t19.5 -54q-1 -39 -10 -63t-34 -59l-50 -68l-40 33zM285 536q-30 7 -39.5 20.5t-9.5 48.5q0 34 18.5 53t52.5 19q33 0 53 -19.5t20 -52.5q0 -39 -9 -63.5t-34 -60.5l-51 -68l-40 33z" />
    <glyph glyph-name="quotedblbase" unicode="&#x201e;" horiz-adv-x="454" 
d="M118 -5q-30 8 -39.5 21.5t-9.5 48.5q0 34 18.5 52.5t52.5 18.5t53.5 -20t19.5 -54q-1 -38 -10 -63t-34 -59l-50 -68l-40 34zM296 -5q-30 8 -39.5 21.5t-9.5 48.5q0 34 18.5 52.5t52.5 18.5t53.5 -20t19.5 -54q-1 -38 -9.5 -63t-33.5 -59l-51 -68l-40 34z" />
    <glyph glyph-name="dagger" unicode="&#x2020;" horiz-adv-x="276" 
d="M167 581l89 3v-61l-89 4l4 -200h-67l5 200l-89 -4v61l89 -3l-5 96h67z" />
    <glyph glyph-name="daggerdbl" unicode="&#x2021;" horiz-adv-x="276" 
d="M171 677l-4 -96l89 3v-61l-89 4v-195l89 4v-61l-89 3l4 -98h-67l4 98l-88 -3v61l88 -4v195l-88 -4v61l88 -3l-4 96h67z" />
    <glyph glyph-name="bullet" unicode="&#x2022;" horiz-adv-x="358" 
d="M263.5 159.5q-34.5 -34.5 -83.5 -34.5t-83.5 34.5t-34.5 82.5q0 49 34.5 83.5t83.5 34.5t83.5 -34.5t34.5 -83.5q0 -48 -34.5 -82.5z" />
    <glyph glyph-name="ellipsis" unicode="&#x2026;" horiz-adv-x="763" 
d="M81.5 114q18.5 19 52.5 19t52 -18.5t18 -53.5t-18 -53.5t-52 -18.5t-52.5 18.5t-18.5 53.5q0 34 18.5 53zM328.5 114q18.5 19 52.5 19t52 -18.5t18 -53.5t-18 -53.5t-52 -18.5t-52.5 19t-18.5 53t18.5 53zM576.5 114q18.5 19 52.5 19t52 -18.5t18 -53.5t-18 -53.5
t-52 -18.5t-52.5 18.5t-18.5 53.5q0 34 18.5 53z" />
    <glyph glyph-name="perthousand" unicode="&#x2030;" horiz-adv-x="1119" 
d="M343.5 426q-21.5 -38 -60 -59.5t-88.5 -21.5t-88.5 21.5t-59.5 59.5t-21 84q0 47 21 85t59.5 60t88.5 22t88.5 -22t60 -60t21.5 -85q0 -46 -21.5 -84zM631 667l-427 -667h-74l426 667h75zM253 581.5q-23 26.5 -58 26.5t-57.5 -26t-22.5 -72q0 -44 22.5 -70t57.5 -26
q36 0 58.5 25.5t22.5 70.5t-23 71.5zM708.5 69q-21.5 -38 -60 -59.5t-87.5 -21.5q-50 0 -88.5 21.5t-59.5 59.5t-21 84q0 47 21 85t59.5 60t88.5 22t88 -22t59.5 -60t21.5 -85q0 -46 -21.5 -84zM1071.5 69q-21.5 -38 -60 -59.5t-87.5 -21.5q-50 0 -88.5 21.5t-59.5 59.5
t-21 84q0 47 21 85t59.5 60t88.5 22t88 -22t59.5 -60t21.5 -85q0 -46 -21.5 -84zM619 224.5q-23 26.5 -58 26.5q-36 0 -58.5 -26t-22.5 -72q0 -44 22.5 -70t58.5 -26q35 0 58 26t23 70q0 45 -23 71.5zM982.5 225q-22.5 26 -58.5 26t-58.5 -26t-22.5 -72q0 -44 22.5 -70
t58.5 -26t58.5 26t22.5 70q0 46 -22.5 72z" />
    <glyph glyph-name="guilsinglleft" unicode="&#x2039;" horiz-adv-x="335" 
d="M305 63h-115l-160 180l160 177h115l-160 -177z" />
    <glyph glyph-name="guilsinglright" unicode="&#x203a;" horiz-adv-x="335" 
d="M305 243l-160 -180h-115l160 180l-160 177h115z" />
    <glyph glyph-name="fraction" unicode="&#x2044;" horiz-adv-x="482" 
d="M80 0h-80l402 700h80z" />
    <glyph glyph-name="colonmonetary" unicode="&#x20a1;" horiz-adv-x="695" 
d="M365 -10l-29 -90h-31l31 94q-51 8 -91 29l-41 -123h-31l46 138q-72 46 -113 123t-41 172q0 99 44 177.5t120 123t169 44.5l36 -2l31 92h31l-33 -97q46 -9 90 -34l44 131h31l-50 -147q26 -18 52 -48l-25 -22q-15 18 -38 37l-191 -569q5 -1 22 -1q62 0 116.5 26t90.5 71
l26 -21q-94 -106 -233 -106zM134.5 180q34.5 -69 95.5 -111l194 578q-5 1 -26 1q-84 0 -152 -40.5t-107 -112t-39 -162.5q0 -84 34.5 -153zM256 53q38 -22 90 -31l196 584q-42 27 -88 36z" />
    <glyph glyph-name="frenchfranc" unicode="&#x20a3;" horiz-adv-x="579" 
d="M76 182v485h469v-121h-331v-146h324v-121h-324v-97h158v-71h-158v-111h-138v111h-67v71h67z" />
    <glyph glyph-name="lira" unicode="&#x20a4;" horiz-adv-x="547" 
d="M392 397v-64h-139q18 -27 24 -54h115v-63h-124q-8 -49 -52 -80q19 7 47 7q19 0 35.5 -4.5t36.5 -13.5q14 -6 30 -10.5t30 -4.5q29 0 52 10.5t35 26.5l54 -110q-47 -50 -146 -50q-31 0 -54.5 6.5t-52.5 18.5q-23 10 -39.5 15t-34.5 5q-44 0 -116 -39l-47 95q50 24 80 57
t30 71h-133v63h117q-9 21 -35 54h-82v64h47q-25 36 -25 74q0 61 35 108t91 72.5t116 25.5q168 0 230 -120l-110 -64q-13 33 -41 52.5t-63 19.5q-47 0 -77 -27t-30 -70q0 -36 26 -71h170z" />
    <glyph glyph-name="peseta" unicode="&#x20a7;" horiz-adv-x="675" 
d="M605 398q-10 -86 -68.5 -141t-151.5 -55h-171v-202h-138v398h-67v72h67v197h309q93 0 151.5 -55.5t68.5 -141.5h66v-72h-66zM460 470q-7 35 -31.5 55.5t-60.5 20.5h-154v-76h246zM368 323q36 0 60.5 20t32.5 55h-247v-75h154z" />
    <glyph glyph-name="uni20A8" unicode="&#x20a8;" horiz-adv-x="1068" 
d="M444 0l-133 239h-106v-239h-138v667h309q68 0 118.5 -28t77.5 -76.5t27 -109.5q0 -82 -43 -133t-105 -64l152 -256h-159zM356 361q45 0 73.5 25t28.5 68q0 42 -29 67t-73 25h-151v-185h151zM708.5 8q-57.5 20 -94.5 55l54 84q28 -28 75 -46.5t91 -18.5q41 0 62 15t21 40
q0 24 -24.5 34.5t-78.5 22.5q-57 12 -94 26t-63.5 44t-26.5 81q0 42 23.5 76t67.5 54t105 20q57 0 106 -17t87 -49l-49 -81q-24 25 -62 40.5t-81 15.5q-35 0 -56.5 -14t-21.5 -37q0 -20 23.5 -30t72.5 -20q58 -13 96.5 -27t66.5 -46t28 -86q0 -69 -55.5 -112.5t-152.5 -43.5
q-62 0 -119.5 20z" />
    <glyph glyph-name="uni20AA" unicode="&#x20aa;" horiz-adv-x="843" 
d="M347 550q125 0 179.5 -55.5t54.5 -162.5v-157h-117v146q0 63 -26.5 93t-90.5 30h-166v-444h-117v550h283zM262 0v374h117v-267h167q64 0 90.5 29.5t26.5 92.5v321h117v-332q0 -107 -54.5 -162.5t-179.5 -55.5h-284z" />
    <glyph glyph-name="Euro" unicode="&#x20ac;" horiz-adv-x="708" 
d="M262 17.5q-70 29.5 -119 84t-70 127.5h-51v71h38q-1 10 -1 33q0 22 2 36h-39v71h52q33 109 125 173.5t214 64.5q101 0 168.5 -44.5t107.5 -116.5l-118 -58q-22 42 -65 69.5t-93 27.5q-62 0 -110.5 -31.5t-71.5 -84.5h242v-71h-271q-2 -11 -2 -36q0 -21 2 -33h271v-71
h-244q23 -54 72 -86t112 -32q50 0 93 27.5t65 69.5l119 -58q-41 -71 -109 -116.5t-168 -45.5q-81 0 -151 29.5z" />
    <glyph glyph-name="uni2113" unicode="&#x2113;" horiz-adv-x="522" 
d="M188 141q0 -26 11.5 -40.5t32.5 -14.5q27 0 44 16l27 -83q-17 -15 -44 -23t-60 -8q-64 0 -99.5 32.5t-35.5 98.5v370q0 53 29 96t80.5 67.5t116.5 24.5q55 0 102.5 -18t76 -51t28.5 -74q0 -49 -39 -91t-111 -90l-159 -107v-105zM305 440q41 27 58 46t17 42
q0 28 -27.5 45.5t-64.5 17.5q-45 0 -72.5 -28t-27.5 -75v-126z" />
    <glyph glyph-name="uni2116" unicode="&#x2116;" horiz-adv-x="1133" 
d="M839.5 372.5q-39.5 22.5 -60.5 60t-21 82.5t21 83t60 60t91 22t91 -22t60 -60t21 -83t-21 -82.5t-60 -60t-91 -22.5q-51 0 -90.5 22.5zM523 667h138v-667h-133l-323 442v-442h-138v667h142l314 -426v426zM988.5 447q21.5 25 21.5 68t-21.5 67t-58.5 24t-58 -24t-21 -67
t21 -68t58 -25t58.5 25z" />
    <glyph glyph-name="uni2117" unicode="&#x2117;" horiz-adv-x="778" 
d="M687.5 161.5q-46.5 -79.5 -126 -126t-172.5 -46.5t-172.5 46.5t-126 126t-46.5 172.5t46.5 172.5t126 126t172.5 46.5q94 0 173.5 -46.5t125.5 -125.5t46 -173q0 -93 -46.5 -172.5zM656 488q-42 71 -113 113t-154 42t-154 -42t-113 -113t-42 -154t42 -154t113 -113
t154 -42q84 0 155 41.5t112.5 112.5t41.5 155q0 83 -42 154zM517.5 332q-36.5 -33 -89.5 -33h-112v-168h-45v405h157q52 0 89 -33.5t37 -86.5q0 -51 -36.5 -84zM485 473q-23 22 -57 22h-112v-155h112q34 0 57 21.5t23 54.5q0 35 -23 57z" />
    <glyph glyph-name="uni2120" unicode="&#x2120;" horiz-adv-x="476" 
d="M165.5 457q-22.5 -18 -64.5 -18q-54 0 -86 36l18 21q29 -32 66 -32q56 0 56 39q0 17 -20 29t-48 16t-48 20t-20 41q0 28 22.5 46t57.5 18q55 0 82 -32l-18 -19q-22 27 -63 27q-21 0 -34.5 -10t-13.5 -26q0 -29 68 -41q29 -5 48.5 -22t19.5 -44q0 -31 -22.5 -49zM396 667
h43v-220h-28v182l-75 -182h-8l-75 182v-182h-28v220h43l64 -160z" />
    <glyph glyph-name="trademark" unicode="&#x2122;" horiz-adv-x="356" 
d="M65 667h85v-15h-34v-109h-16v109h-35v15zM267 667h24v-124h-16v106l-42 -66h-4l-43 66v-106h-15v124h24l36 -57z" />
    <glyph glyph-name="uni2126" unicode="&#x2126;" horiz-adv-x="765" 
d="M173 121q-65 43 -101 104.5t-36 138.5q0 94 44.5 165.5t123.5 110t179 38.5t179 -38.5t123.5 -110t44.5 -165.5q0 -77 -36.5 -138.5t-101.5 -104.5h120v-121h-267v121q66 18 104.5 77.5t38.5 135.5q0 58 -22.5 108.5t-68.5 81.5t-114 31t-114.5 -31t-69 -81.5
t-22.5 -108.5q0 -76 38.5 -135.5t104.5 -77.5v-121h-267v121h120z" />
    <glyph glyph-name="estimated" unicode="&#x212e;" horiz-adv-x="842" 
d="M811 324h-632q-5 0 -5 -5v-190q0 -14 9 -23q97 -103 240 -103q151 0 250 115h57q-55 -64 -136 -100t-173 -36q-106 0 -195.5 47.5t-142 128t-52.5 175.5t52.5 175.5t142 128t195.5 47.5t195.5 -47.5t142 -128t52.5 -175.5v-9zM668 540q0 14 -10 24q-97 99 -235 99
q-140 0 -239 -102q-10 -10 -10 -24v-188q0 -6 5 -6h485q4 0 4 6v191z" />
    <glyph glyph-name="arrowleft" unicode="&#x2190;" horiz-adv-x="582" 
d="M538 211h-269l12 -130l-281 205l281 204l-12 -129h269v-150z" />
    <glyph glyph-name="arrowup" unicode="&#x2191;" horiz-adv-x="582" 
d="M216 17v269l-130 -12l205 281l204 -281l-129 12v-269h-150z" />
    <glyph glyph-name="arrowright" unicode="&#x2192;" horiz-adv-x="582" 
d="M584 286l-281 -205l12 130h-268v150h268l-12 129z" />
    <glyph glyph-name="arrowdown" unicode="&#x2193;" horiz-adv-x="582" 
d="M366 555v-269l130 12l-205 -281l-204 281l129 -12v269h150z" />
    <glyph glyph-name="partialdiff" unicode="&#x2202;" horiz-adv-x="574" 
d="M153 19.5q-58 31.5 -89 86t-31 119.5q0 64 28 118.5t77.5 86t109.5 31.5q104 0 154 -78q-28 69 -83.5 128.5t-138.5 103.5l98 69q71 -41 130.5 -106.5t96 -148.5t36.5 -173q0 -80 -30.5 -140.5t-88 -94t-135.5 -33.5q-76 0 -134 31.5zM379.5 133q33.5 35 33.5 92
t-33.5 92t-92.5 35q-58 0 -92 -35.5t-34 -91.5t34 -91.5t92 -35.5q59 0 92.5 35z" />
    <glyph glyph-name="uni2206" unicode="&#x2206;" horiz-adv-x="682" 
d="M686 0h-689l258 667h173zM491 121l-150 408l-149 -408h299z" />
    <glyph glyph-name="product" unicode="&#x220f;" horiz-adv-x="782" 
d="M652 -90h-138v636h-245v-636h-139v636h-104v121h731v-121h-105v-636z" />
    <glyph glyph-name="summation" unicode="&#x2211;" horiz-adv-x="585" 
d="M47 546v121h492v-121h-320l202 -249l-208 -266h326v-121h-493v121l205 265z" />
    <glyph glyph-name="minus" unicode="&#x2212;" horiz-adv-x="504" 
d="M475 374v-77h-446v77h446z" />
    <glyph glyph-name="radical" unicode="&#x221a;" horiz-adv-x="685" 
d="M568 667h92l-254 -667h-82l-114 304l-132 -48l-24 74l210 72l103 -278z" />
    <glyph glyph-name="infinity" unicode="&#x221e;" horiz-adv-x="688" 
d="M102.5 184q-37.5 25 -55.5 65.5t-18 86.5t18 86t55.5 65t92.5 25q47 0 86.5 -28t62.5 -73q23 45 62 73t87 28q82 0 124 -52t42 -125q0 -46 -18 -86t-55.5 -65t-92.5 -25q-48 0 -87.5 27.5t-61.5 73.5q-22 -46 -61.5 -73.5t-87.5 -27.5q-55 0 -92.5 25zM265.5 261.5
q26.5 26.5 43.5 74.5q-17 48 -43.5 74t-59.5 26q-42 0 -68 -27.5t-26 -72.5t26 -73t68 -28q33 0 59.5 26.5zM550 263q26 27 26 72t-26 73t-67 28q-34 0 -60 -26.5t-44 -74.5q36 -99 104 -99q41 0 67 27z" />
    <glyph glyph-name="integral" unicode="&#x222b;" horiz-adv-x="372" 
d="M17 -100v82h61q26 0 44.5 22t18.5 54v552q0 47 21 83t56.5 55.5t75.5 19.5h61v-82h-61q-27 0 -45 -21t-18 -54v-554q0 -47 -21 -82.5t-56.5 -55t-75.5 -19.5h-61z" />
    <glyph glyph-name="approxequal" unicode="&#x2248;" horiz-adv-x="504" 
d="M29 468q52 -30 112 -30q29 0 51.5 6.5t49.5 18.5q31 14 57.5 21t63.5 7q28 0 58 -6.5t54 -17.5v-84q-51 31 -112 31q-30 0 -52.5 -6.5t-49.5 -18.5q-33 -13 -58.5 -20t-61.5 -7q-64 0 -112 23v83zM29 285q49 -30 112 -30q29 0 50.5 6t50.5 18q31 14 57.5 21t63.5 7
q29 0 59 -6.5t53 -17.5v-83q-49 30 -112 30q-30 0 -52.5 -6.5t-49.5 -18.5q-33 -13 -58.5 -20t-61.5 -7q-61 0 -112 23v84z" />
    <glyph glyph-name="notequal" unicode="&#x2260;" horiz-adv-x="504" 
d="M136 93h-74l68 108h-101v77h150l72 112h-222v77h271l68 107h75l-69 -107h101v-77h-149l-72 -112h221v-77h-270z" />
    <glyph glyph-name="lessequal" unicode="&#x2264;" horiz-adv-x="504" 
d="M475 109l-446 200v89l446 201v-92l-357 -154l357 -153v-91zM475 0h-446v77h446v-77z" />
    <glyph glyph-name="greaterequal" unicode="&#x2265;" horiz-adv-x="504" 
d="M474 309l-446 -200v91l357 153l-357 154v92l446 -201v-89zM475 0h-446v77h446v-77z" />
    <glyph glyph-name="uni22B2" unicode="&#x22b2;" horiz-adv-x="587" 
d="M589 286l-535 -309v618z" />
    <glyph glyph-name="uni22B3" unicode="&#x22b3;" horiz-adv-x="587" 
d="M535 595v-618l-535 309z" />
    <glyph glyph-name="dotmath" unicode="&#x22c5;" horiz-adv-x="208" 
d="M159 246q0 -22 -16 -38.5t-39 -16.5t-39 16.5t-16 38.5q0 21 17 36.5t38 15.5t38 -14q17 -17 17 -38z" />
    <glyph glyph-name="uni2318" unicode="&#x2318;" horiz-adv-x="667" 
d="M592.5 75q-32.5 -33 -78.5 -33t-79 33t-33 79v58h-137v-58q0 -46 -33 -79t-79 -33t-78.5 33t-32.5 79t32.5 78.5t78.5 32.5h58v137h-57q-46 0 -79 33t-33 79t33 78.5t79 32.5t78.5 -32.5t32.5 -78.5v-59h137v59q0 46 33 78.5t79 32.5t78.5 -32.5t32.5 -78.5t-32.5 -79
t-78.5 -33h-58v-137h58q46 0 78.5 -32.5t32.5 -78.5t-32.5 -79zM211 514q0 24 -17 41t-40 17q-25 0 -42 -17t-17 -41t17 -41.5t42 -17.5h57v59zM554.5 555q-17.5 17 -40.5 17q-24 0 -41 -17t-17 -41v-59h58q23 0 40.5 17.5t17.5 41.5t-17.5 41zM265 265h137v137h-137v-137z
M153 212q-24 0 -41 -17.5t-17 -40.5q0 -25 17 -42t41 -17t41 17t17 42v58h-58zM555 194.5q-17 17.5 -41 17.5h-58v-58q0 -25 17 -42t41 -17t41 17t17 42q0 23 -17 40.5z" />
    <glyph glyph-name="filledbox" unicode="&#x25a0;" horiz-adv-x="661" 
d="M47 572h571v-572h-571v572z" />
    <glyph glyph-name="triagup" unicode="&#x25b2;" horiz-adv-x="616" 
d="M-2 30l309 535l310 -536z" />
    <glyph glyph-name="triagdn" unicode="&#x25bc;" horiz-adv-x="616" 
d="M307 -25l-309 535h619z" />
    <glyph glyph-name="lozenge" unicode="&#x25ca;" horiz-adv-x="375" 
d="M198 667l158 -333l-158 -334h-21l-158 334l158 333h21zM187 626l-132 -292l133 -293l132 293z" />
    <glyph glyph-name="uni25CF" unicode="&#x25cf;" horiz-adv-x="695" 
d="M604 136q-40 -68 -108 -108t-149 -40t-149 40t-108 108t-40 149t40 149t108 108t149 40t149 -40t108 -108t40 -149t-40 -149z" />
    <glyph glyph-name="uni2605" unicode="&#x2605;" horiz-adv-x="759" 
d="M379 697l90 -276h290l-235 -171l90 -275l-235 170l-234 -170l89 275l-234 171h290z" />
    <glyph glyph-name="uni2610" unicode="&#x2610;" horiz-adv-x="661" 
d="M45 572h571v-572h-571v572zM129 495v-418h403v418h-403z" />
    <glyph glyph-name="diamond" unicode="&#x2666;" horiz-adv-x="501" 
d="M501 285l-251 -250l-250 250l250 251z" />
    <glyph glyph-name="uni2713" unicode="&#x2713;" horiz-adv-x="531" 
d="M531 698l-329 -607l-202 246l60 56l131 -158l274 504z" />
    <glyph glyph-name="uniE000" unicode="&#xe000;" horiz-adv-x="1624" 
d="M65 667h473l287 -398l-287 -269zM658 667h567l333 -472l-333 -326z" />
    <glyph glyph-name="guillemotleft.case" unicode="&#xf6b6;" horiz-adv-x="521" 
d="M305 519l-160 -177l160 -180h-115l-160 180l160 177h115zM491 519l-160 -177l160 -180h-115l-160 180l160 177h115z" />
    <glyph glyph-name="guillemotright.case" unicode="&#xf6b7;" horiz-adv-x="521" 
d="M30 519h115l160 -177l-160 -180h-115l160 180zM216 519h115l160 -177l-160 -180h-115l160 180z" />
    <glyph glyph-name="guilsinglleft.case" unicode="&#xf6b8;" horiz-adv-x="335" 
d="M305 519l-160 -177l160 -180h-115l-160 180l160 177h115z" />
    <glyph glyph-name="guilsinglright.case" unicode="&#xf6b9;" horiz-adv-x="335" 
d="M30 519h115l160 -177l-160 -180h-115l160 180z" />
    <glyph glyph-name="hyphen.case" unicode="&#xf6ba;" horiz-adv-x="358" 
d="M284 289h-240v105h240v-105z" />
    <glyph glyph-name="endash.case" unicode="&#xf6bb;" horiz-adv-x="593" 
d="M563 289h-533v105h533v-105z" />
    <glyph glyph-name="emdash.case" unicode="&#xf6bc;" horiz-adv-x="833" 
d="M803 289h-773v105h773v-105z" />
    <glyph glyph-name="uniF6C3" unicode="&#xf6c3;" horiz-adv-x="0" 
d="M-81 -221q-22 -39 -60 -66l-43 34q21 13 39.5 36t22.5 45q-5 -3 -15 -3q-22 0 -37 15.5t-15 40.5t17.5 43t43.5 18q28 0 48.5 -21.5t20.5 -58.5q0 -44 -22 -83z" />
    <glyph glyph-name="uniF8FF" unicode="&#xf8ff;" horiz-adv-x="1624" 
d="M65 667h473l287 -398l-287 -269zM658 667h567l333 -472l-333 -326z" />
    <glyph glyph-name="i.loclTRK" horiz-adv-x="254" 
d="M50 0v500h123v-500h-123zM66.5 635q-19.5 19 -19.5 47t19.5 47.5t46.5 19.5t46.5 -19.5t19.5 -47.5t-19.5 -47t-46.5 -19t-46.5 19z" />
    <glyph glyph-name="a.ss01" horiz-adv-x="577" 
d="M448.5 468.5q61.5 -45.5 61.5 -127.5v-340h-124v30q-60 -44 -152 -44q-106 0 -155.5 42.5t-49.5 118.5q0 150 199 150q122 0 158 5v26q0 35 -30 57.5t-84 22.5q-45 0 -88 -17t-78 -43l-52 90q39 32 99.5 53.5t135.5 21.5q98 0 159.5 -45.5zM353.5 104.5
q32.5 21.5 32.5 57.5v64q-31 -12 -120 -12q-59 0 -86 -14.5t-27 -52.5q0 -33 31 -48.5t87 -15.5q50 0 82.5 21.5z" />
    <glyph glyph-name="b.ss01" horiz-adv-x="624" 
d="M440 478.5q57 -34.5 87.5 -94.5t30.5 -135t-30.5 -135t-87.5 -94t-133 -34q-89 0 -146 67v-53h-124v639l124 23v-217q56 68 146 68q76 0 133 -34.5zM399.5 144.5q37.5 42.5 37.5 104.5q0 61 -37.5 104t-95.5 43q-62 0 -101.5 -41t-39.5 -105t40 -106t101 -42
q58 0 95.5 42.5z" />
    <glyph glyph-name="d.ss01" horiz-adv-x="615" 
d="M425 636l123 29v-665h-123v52q-56 -66 -145 -66q-75 0 -132 34t-88 94t-31 135t31 135t88 94.5t132 34.5q87 0 145 -66v189zM384.5 144q40.5 42 40.5 106t-40 105t-102 41q-58 0 -95 -43t-37 -104q0 -62 37 -104.5t95 -42.5q61 0 101.5 42z" />
    <glyph glyph-name="h.ss01" horiz-adv-x="554" 
d="M487 0h-124v296q0 56 -31.5 80.5t-73.5 24.5q-34 0 -61 -19.5t-36 -63.5v-318h-124v635l124 29v-205q26 23 58 37t68 14q44 0 89 -18.5t78 -65.5t33 -127v-299z" />
    <glyph glyph-name="i.ss01" horiz-adv-x="243" 
d="M168 700v-105l-124 -25v130h124zM44 0v478l124 25v-503h-124z" />
    <glyph glyph-name="t.ss01" horiz-adv-x="374" 
d="M315 0q-26 -2 -125 -2q-69 2 -110.5 38.5t-42.5 126.5v473l124 28v-164h111v-111h-111v-216q0 -35 20 -49t57 -14q27 0 52 4z" />
    <glyph glyph-name="uni0414.loclBGR" 
 />
    <glyph glyph-name="uni041B.loclBGR" 
 />
    <glyph glyph-name="uni0424.loclBGR" 
 />
    <glyph glyph-name="uni0432.loclBGR" 
 />
    <glyph glyph-name="uni0433.loclBGR" 
 />
    <glyph glyph-name="uni0434.loclBGR" 
 />
    <glyph glyph-name="uni0436.loclBGR" 
 />
    <glyph glyph-name="uni0437.loclBGR" 
 />
    <glyph glyph-name="uni0438.loclBGR" 
 />
    <glyph glyph-name="uni0439.loclBGR" 
 />
    <glyph glyph-name="uni045D.loclBGR" 
d="M-6 778h132l135 -144h-127z" />
    <glyph glyph-name="uni043A.loclBGR" 
 />
    <glyph glyph-name="uni043B.loclBGR" 
 />
    <glyph glyph-name="uni043F.loclBGR" 
 />
    <glyph glyph-name="uni0442.loclBGR" 
 />
    <glyph glyph-name="uni0446.loclBGR" 
 />
    <glyph glyph-name="uni0448.loclBGR" 
 />
    <glyph glyph-name="uni0449.loclBGR" 
 />
    <glyph glyph-name="uni044C.loclBGR" 
 />
    <glyph glyph-name="uni044A.loclBGR" 
 />
    <glyph glyph-name="uni044E.loclBGR" 
 />
    <glyph glyph-name="uni0431.loclSRB" 
 />
    <glyph glyph-name="colon.alt" horiz-adv-x="254" 
d="M75.5 544q18.5 19 52.5 19t52 -18.5t18 -53.5q0 -34 -18 -52.5t-52 -18.5t-52.5 18.5t-18.5 52.5t18.5 53zM75.5 187.5q18.5 18.5 52.5 18.5t52 -18.5t18 -52.5q0 -35 -18 -53.5t-52 -18.5q-35 0 -53 18.5t-18 53.5q0 34 18.5 52.5z" />
    <glyph glyph-name="colon.centered" horiz-adv-x="240" 
d="M59.5 498.5q18.5 18.5 52.5 18.5t52 -18.5t18 -53.5q0 -34 -18 -52.5t-52 -18.5t-52.5 18.5t-18.5 52.5q0 35 18.5 53.5zM59.5 236q18.5 19 52.5 19t52 -18.5t18 -53.5t-18 -53.5t-52 -18.5t-52.5 19t-18.5 53t18.5 53z" />
    <glyph glyph-name="brevecombcy" horiz-adv-x="0" 
 />
    <glyph glyph-name="thickspace" horiz-adv-x="500" 
 />
    <glyph glyph-name="accentcomb" horiz-adv-x="249" 
d="M-6 633l135 144h132l-140 -144h-127z" />
    <glyph glyph-name="slashsmallcomb" 
d="M0 -101l-60 57l583 670l60 -56z" />
    <glyph glyph-name="lowercaseshoulder" 
d="M376 296q0 56 -31.5 80.5t-73.5 24.5q-41 0 -70.5 -29.5t-29.5 -94.5l-54 -1q-2 -13 -2 73q0 31 25 69t67.5 65t93.5 27q44 0 89 -18.5t77.5 -66.5t32.5 -129h-124z" />
    <glyph glyph-name="lowercasestem" 
d="M232 0v500h124v-500h-124z" />
    <glyph glyph-name="lowercaseshortstem" 
d="M376 0v299h124v-299h-124z" />
    <glyph glyph-name="lowercasealoop" 
d="M463 124.5q-23 -60.5 -71 -99.5t-117 -39q-75 0 -132 34t-88 94t-31 135t31 135t88 94.5t132 34.5q69 0 117 -39.5t71 -100t23 -124.5t-23 -124.5zM379.5 144q40.5 42 40.5 106t-40 105t-102 41q-58 0 -95 -43t-37 -104q0 -62 37 -104.5t95 -42.5q61 0 101.5 42z" />
    <glyph glyph-name="newGlyph" 
 />
    <glyph glyph-name="lowercaseftop" 
d="M274 589q-7 1 -21 1q-48 0 -75 -20.5t-27 -59.5v-100h-124v71q0 68 30 122.5t86.5 84.5t130.5 25v-124z" />
    <glyph glyph-name="lowercasegdescender" 
d="M445 500h124v-475q0 -71 -35.5 -125t-98.5 -83.5t-141 -29.5q-87 0 -157.5 33.5t-99.5 87.5l106 61q14 -29 55.5 -48.5t98.5 -19.5q64 0 106 34.5t42 89.5v475z" />
    <glyph glyph-name="lowercasethook" 
d="M264 0q-47 -5 -78 -5q-80 0 -119 36.5t-39 131.5v121h124v-113q0 -34 16 -47t51 -13q20 0 45 3v-114z" />
    <glyph glyph-name="lowercaser" 
d="M307 393q-7 2 -22 2q-62 0 -102 -36t-40 -98l-23 15q5 3 8.5 26t3.5 68q0 32 20 64.5t58 54t89 21.5h17z" />
    <glyph glyph-name="lowercasetcross" horiz-adv-x="1200" 
d="M149 389v111h329v-111h-329z" />
    <glyph glyph-name="ascenderstem" 
d="M67 0v700h130v-700h-130z" />
    <glyph glyph-name="uppercasehoriz" horiz-adv-x="797" 
d="M197 576v124h214v-124h-214z" />
    <glyph glyph-name="idot" horiz-adv-x="388" 
d="M134 587.5q-20 19.5 -20 52.5t20 52t55 19t55 -19t20 -52t-20.5 -52.5t-54.5 -19.5q-35 0 -55 19.5z" />
    </font>
</defs>
</svg>
